<?xml version="1.0" encoding="utf-8"?>
<!-- Generator: Adobe Illustrator 16.0.3, SVG Export Plug-In . SVG Version: 6.00 Build 0)  -->
<!DOCTYPE svg PUBLIC "-//W3C//DTD SVG 1.1//EN" "http://www.w3.org/Graphics/SVG/1.1/DTD/svg11.dtd">
<svg version="1.1" xmlns="http://www.w3.org/2000/svg" xmlns:xlink="http://www.w3.org/1999/xlink" x="0px" y="0px" width="311px"
	 height="488px" viewBox="0 0 311 488" enable-background="new 0 0 311 488" xml:space="preserve">
<g id="Layer_3">
	<g>
		<g>
			<g>
				<polygon fill-rule="evenodd" clip-rule="evenodd" fill="#1D1D1D" fill-opacity="0.7059" points="91.65,437.55 91.65,436.95 
					91.8,437.2 				"/>
			</g>
		</g>
		<g>
			<g>
				<g>
					<path fill-rule="evenodd" clip-rule="evenodd" fill="#41342E" d="M12.575,465.275l2.175-3.375l6.2,3.5L12.575,465.275z
						 M164.5,477.1h8.4l2.55,6.976L164.5,477.1z"/>
					<path fill-rule="evenodd" clip-rule="evenodd" fill="#4F3F37" d="M50.6,460.55h48.9c0.333,0,0.65,0,0.95,0c0.6,0,1.4,0,2.4,0
						v-0.1c2.133,0,4.4,0,6.8,0l-4.4-0.101l105.25,0.2L225.1,485H176.45v-0.2l-1-0.725l-2.55-6.976h-8.4l-3.35-2H85.7l-3.8,9.9
						H42.65l3.05-9.6L50.6,460.55z"/>
					<polygon fill-rule="evenodd" clip-rule="evenodd" fill="#7B5B4B" points="21.4,444 16.1,441.25 156.55,441.25 202.35,457.65 
						102.85,458.8 102.85,458.95 51.3,459.15 					"/>
					<polygon fill-rule="evenodd" clip-rule="evenodd" fill="#644739" points="38.75,454.25 50.6,460.55 45.7,475.4 42.2,485 
						42,485 33.275,479.45 35,473.3 34.525,473.025 35,471.3 24.6,465.45 20.95,465.4 14.75,461.9 12.575,465.275 11.75,465.25 
						11.4,465.1 4.325,460.475 14.5,441.25 					"/>
					<path fill-rule="evenodd" clip-rule="evenodd" fill="#C29A87" d="M50.6,460.55l-11.85-6.3C25.883,446.95,20.1,443.533,21.4,444
						l29.9,15.15l51.55-0.2v-0.15l99.5-1.149l8.15,2.899l-105.25-0.2l4.4,0.101c-2.4,0-4.667,0-6.8,0v0.1c-1,0-1.8,0-2.4,0
						c-0.3,0-0.617,0-0.95,0H50.6z"/>
					<path fill-rule="evenodd" clip-rule="evenodd" fill="#A87E69" d="M21.4,444c-1.3-0.467,4.483,2.95,17.35,10.25l-24.25-13h1.6
						L21.4,444z"/>
					<polygon fill-rule="evenodd" clip-rule="evenodd" fill="#513F36" points="42.2,485 45.7,475.4 42.65,485 					"/>
				</g>
			</g>
		</g>
		<g>
			<g>
				<g>
					<path fill-rule="evenodd" clip-rule="evenodd" fill="#373737" d="M64.9,194.25l-1.2-0.65c-0.967,0-1.767,0.383-2.4,1.15
						l-1,3.05c0,1.233,0.367,2.267,1.1,3.1l2.45,1.5l1.05-0.1c1.46,0.993,2.068,1.943,1.825,2.85H66.6L64.9,205
						c-1.4-0.367-2.683-1.283-3.85-2.75c-0.131-0.168-0.256-0.344-0.375-0.525l-0.975,0.4c-0.702-1.45-1.119-3.042-1.25-4.775
						c-0.167-2.667,0.4-4.917,1.7-6.75l2.1-1.85l2.5-0.6h0.15C67.8,190.517,67.8,192.55,64.9,194.25z"/>
					<path fill-rule="evenodd" clip-rule="evenodd" fill="#151515" d="M64.9,194.25l1.1,0.95c0.633,1,0.95,2.066,0.95,3.2
						c0.066,1.233-0.2,2.2-0.8,2.9l-1.25,1l-1.05,0.1l-2.45-1.5c-0.733-0.833-1.1-1.867-1.1-3.1l1-3.05
						c0.633-0.767,1.434-1.15,2.4-1.15L64.9,194.25z M136.1,176.75l-8.9,4.4v-4.95l1.75-0.1L136.1,176.75z M130,166.2h0.1
						c0.767,0,1.383,0.3,1.85,0.9c0.466,0.7,0.7,1.517,0.7,2.45c0,0.833-0.233,1.6-0.7,2.3l-1.75,1.1h-0.35l-0.65-0.3l-0.85-0.8
						l-0.8-2.3l0.35-1.85l0.45-0.6l1.5-0.9H130z"/>
					<path fill-rule="evenodd" clip-rule="evenodd" fill="#444444" d="M130,166.2h-0.15l-1.5,0.9l-0.45,0.6l-0.35,1.85l0.8,2.3
						l0.85,0.8l0.65,0.3c2.333,0.333,3.25,1.15,2.75,2.45l2.2-0.45l0.25-0.15l0.6,1.3l0.275,0.375l0.175,0.275l-7.15-0.65l-1.75,0.1
						v-7.7c-0.067-0.233-1.333-0.55-3.8-0.95l0.25-1.5l1.6-2.5c1.4-1.4,3.017-2.083,4.85-2.05l2.05,0.35
						C132.617,164.45,131.9,165.9,130,166.2z"/>
					<polygon fill-rule="evenodd" clip-rule="evenodd" fill="#666666" points="137.1,174.6 136.3,175.25 135.65,176.1 135.05,174.8 
						135.25,174.7 136.55,173.55 					"/>
					<polygon fill-rule="evenodd" clip-rule="evenodd" fill="#6F6F6F" points="137.1,174.6 137.675,175.575 135.925,176.475 
						135.65,176.1 136.3,175.25 					"/>
				</g>
			</g>
		</g>
		<g>
			<g>
				<g>
					<path fill-rule="evenodd" clip-rule="evenodd" fill="#2F2F2F" d="M66.75,183.35l0.2-4.65l10.55,1.65h0.15l13.2,1.25l0.15,2.3
						h-0.6c-1.133,0-2.117,0.434-2.95,1.3c-0.7,0.767-1.05,1.75-1.05,2.95c0,1.233,0.35,2.233,1.05,3l2.95,1.25h0.25v1.6l-6.8-0.2
						l-0.2-0.45c-0.4-2.767-1.483-5.217-3.25-7.35l-2.75-2.65l-1.95-0.95l-2.65-0.55l-1.3,0.1L66.75,183.35z"/>
					<path fill-rule="evenodd" clip-rule="evenodd" fill="#151515" d="M90.65,192.4H90.4l-2.95-1.25c-0.7-0.767-1.05-1.767-1.05-3
						c0-1.2,0.35-2.183,1.05-2.95c0.833-0.867,1.816-1.3,2.95-1.3H91c0.833,0.067,1.55,0.5,2.15,1.3c0.8,0.767,1.2,1.75,1.2,2.95
						c0,1.233-0.4,2.233-1.2,3C92.55,191.917,91.717,192.333,90.65,192.4z M90.65,194c3.767,0.8,3.833,2.333,0.2,4.6l-3.05,1.5
						l-5.1,2.3c1.066-2.033,1.483-4.4,1.25-7.1l-0.1-1.5L90.65,194z"/>
					<path fill-rule="evenodd" clip-rule="evenodd" fill="none" stroke="#2F2F2F" stroke-miterlimit="3" d="M83.85,193.8l6.8,0.2
						 M90.65,192.4H90.4l-2.95-1.25c-0.7-0.767-1.05-1.767-1.05-3c0-1.2,0.35-2.183,1.05-2.95c0.833-0.867,1.816-1.3,2.95-1.3H91
						 M90.85,181.6l-13.2-1.25H77.5l-10.55-1.65l-0.2,4.65 M87.8,200.1l3.05-1.5"/>
				</g>
			</g>
		</g>
		<g>
			<g>
				<g>
					<path fill-rule="evenodd" clip-rule="evenodd" fill="#A0874E" d="M130.35,172.2l-0.95-0.15l-1.5-0.65l-0.55-1.4v-0.25l0.35-1.5
						l0.2-0.25c0.467-0.5,0.967-0.75,1.5-0.75h0.15l1.25,0.65v0.1l0.7,1.75l-0.25,0.7L130.35,172.2z"/>
					<path fill-rule="evenodd" clip-rule="evenodd" fill="#FAF8F3" d="M40.95,203.25c-4.067,0.833-6.9,3.116-8.5,6.85
						C33.883,205.233,36.717,202.95,40.95,203.25z"/>
					
						<linearGradient id="SVGID_1_" gradientUnits="userSpaceOnUse" x1="124.0654" y1="-100.5977" x2="133.9909" y2="-100.5977" gradientTransform="matrix(0.3753 0.9269 -0.9269 0.3753 -69.0802 112.4979)">
						<stop  offset="0.1137" style="stop-color:#6F5C33"/>
						<stop  offset="0.4745" style="stop-color:#EEEEEC"/>
						<stop  offset="0.6667" style="stop-color:#6F5C33"/>
						<stop  offset="0.8235" style="stop-color:#9D8448"/>
					</linearGradient>
					<path fill-rule="evenodd" clip-rule="evenodd" fill="url(#SVGID_1_)" d="M45.875,212.55c0.725-0.92,1.2-1.92,1.425-3
						c0.434-1.666,0.667-2.666,0.7-3c-0.567-1.066-0.683-2.05-0.35-2.95l28.3-11.4L47.25,203l-0.65-0.6l-0.25-0.1
						c0.7-0.367,1.767-0.867,3.2-1.5l59.4-24.6c1.966-0.7,3.383-0.517,4.25,0.55l1.25,2v1.6l-1.35,2.15l-51.175,20.725
						c-0.298-0.292-0.589-0.616-0.875-0.975c-0.131-0.168-0.256-0.344-0.375-0.525l-8.925,3.625l-2.3,0.7
						c-0.133,1.233-0.55,2.467-1.25,3.7C47.543,210.807,46.769,211.74,45.875,212.55z M31.4,208.55c0,0.834,0.033,1.584,0.1,2.25
						c0.152,0.948,0.427,1.782,0.825,2.5c-0.457-0.584-0.798-1.268-1.025-2.05c-0.148-0.402-0.248-0.819-0.3-1.25
						C31.069,209.518,31.203,209.034,31.4,208.55z"/>
					
						<linearGradient id="SVGID_2_" gradientUnits="userSpaceOnUse" x1="-192.1665" y1="261.0801" x2="-165.3469" y2="261.0801" gradientTransform="matrix(0.6296 -0.7769 0.7769 0.6296 -47.5908 -89.8237)">
						<stop  offset="0" style="stop-color:#9D8448"/>
						<stop  offset="0.4863" style="stop-color:#856D39"/>
						<stop  offset="0.7922" style="stop-color:#F5F2E8"/>
						<stop  offset="1" style="stop-color:#D9CFAE"/>
					</linearGradient>
					<path fill-rule="evenodd" clip-rule="evenodd" fill="url(#SVGID_2_)" d="M45.875,212.55c-0.969,0.862-2.078,1.578-3.325,2.15
						c-2.667,1.066-5.033,1.283-7.1,0.649c-1.346-0.414-2.388-1.097-3.125-2.05c-0.398-0.718-0.673-1.552-0.825-2.5
						c-0.067-0.666-0.1-1.416-0.1-2.25l0.7-1.55c1.233-2.267,3.117-3.9,5.65-4.9c2.433-1.067,4.733-1.267,6.9-0.6l1.7,0.8l0.25,0.1
						l0.65,0.6l28.7-10.8l-28.3,11.4c-0.333,0.9-0.217,1.883,0.35,2.95c-0.033,0.334-0.267,1.334-0.7,3
						C47.075,210.63,46.6,211.63,45.875,212.55z M40.95,203.25c-4.233-0.3-7.067,1.983-8.5,6.85
						C34.05,206.366,36.883,204.083,40.95,203.25z"/>
					
						<linearGradient id="SVGID_3_" gradientUnits="userSpaceOnUse" x1="-398.1875" y1="-154.4697" x2="-381.1125" y2="-154.4697" gradientTransform="matrix(-1 0 0 -1 -236 10)">
						<stop  offset="0.3137" style="stop-color:#6F5C33"/>
						<stop  offset="0.4784" style="stop-color:#77776B"/>
						<stop  offset="0.6667" style="stop-color:#6F5C33"/>
						<stop  offset="0.8235" style="stop-color:#9D8448"/>
					</linearGradient>
					<path fill-rule="evenodd" clip-rule="evenodd" fill="url(#SVGID_3_)" d="M145.3,166.3l-0.05-1.15l0.05-0.2l0.2-0.15l3,0.35
						c4.967,0,7.583-1.117,7.85-3.35c0.6,0.567,0.9,1.15,0.9,1.75c0,0.934-0.65,1.767-1.95,2.5c-1.767,0.867-3.566,1.217-5.4,1.05
						C147.367,166.967,145.833,166.7,145.3,166.3z"/>
					
						<linearGradient id="SVGID_4_" gradientUnits="userSpaceOnUse" x1="-91.8179" y1="-303.7119" x2="-79.8031" y2="-303.7119" gradientTransform="matrix(-0.4154 0.9096 -0.9096 -0.4154 -162.4685 114.4143)">
						<stop  offset="0.1137" style="stop-color:#6F5C33"/>
						<stop  offset="0.4745" style="stop-color:#EEEEEC"/>
						<stop  offset="0.6667" style="stop-color:#6F5C33"/>
						<stop  offset="0.8235" style="stop-color:#9D8448"/>
					</linearGradient>
					<path fill-rule="evenodd" clip-rule="evenodd" fill="url(#SVGID_4_)" d="M142.55,162.95c0.067-0.434,0.75-1.05,2.05-1.85
						c0.667-0.533,2.433-0.9,5.3-1.1c2.067,0,3.867,0.367,5.4,1.1l1.05,0.7c-0.267,2.233-2.883,3.35-7.85,3.35l-3-0.35l-0.2,0.15
						v-0.15l-0.85-1.05l-0.2-0.2L142.55,162.95z"/>
					
						<linearGradient id="SVGID_5_" gradientUnits="userSpaceOnUse" x1="116.3193" y1="-180.2749" x2="124.5682" y2="-180.2749" gradientTransform="matrix(0.3389 0.9408 -0.9408 0.3389 -73.3057 114.322)">
						<stop  offset="0.1137" style="stop-color:#6F5C33"/>
						<stop  offset="0.4745" style="stop-color:#EEEEEC"/>
						<stop  offset="0.6667" style="stop-color:#6F5C33"/>
						<stop  offset="0.8235" style="stop-color:#9D8448"/>
					</linearGradient>
					<polygon fill-rule="evenodd" clip-rule="evenodd" fill="url(#SVGID_5_)" points="145.3,166.3 130.35,172.2 131.25,170.45 
						131.5,169.75 130.8,168 130.8,167.9 129.55,167.25 129.4,167.1 142.55,162.95 144.25,163.55 144.45,163.75 145.3,164.8 
						145.3,164.95 145.25,165.15 					"/>
				</g>
			</g>
		</g>
		<g>
			<g>
				<g>
					<path fill-rule="evenodd" clip-rule="evenodd" fill="#262626" d="M69.5,182.5h1.1l2.55,0.4c0.867,0.434,1.717,0.917,2.55,1.45
						l0.1,0.1l2.3,2.2c1.7,2.1,2.783,4.55,3.25,7.35l0.3,1.85v2.3H73.3v-0.3l-0.25-1.3c-0.3-2-1.117-3.833-2.45-5.5l-1.55-1.65
						c-1.233-0.833-2.517-1.25-3.85-1.25h-0.3h-0.15l-2.5,0.6l1.6-2.65l1.85-1.95l1.05-0.8L69.5,182.5z M64.3,187.5l0.6-0.15
						c0.9-0.133,2.083,0.217,3.55,1.05l6.2-3.95c-0.667-0.534-1.633-1.05-2.9-1.55c-1.267-0.4-2.683-0.15-4.25,0.75L64.3,187.5z"/>
					<path fill-rule="evenodd" clip-rule="evenodd" fill="#9D9D9D" d="M77.65,183.35H77.4c-0.533,0-0.95,0.217-1.25,0.65l-0.35,0.45
						l-0.1-0.1c-0.833-0.533-1.684-1.017-2.55-1.45l1.75-0.6l0.8,0.1L77.65,183.35z"/>
					<path fill-rule="evenodd" clip-rule="evenodd" fill="#6F6F6F" d="M74.9,182.3l-1.75,0.6l-2.55-0.4h-1.1l2.25-0.55l1.3-0.1
						L74.9,182.3z M77.65,183.35L80.4,186c1.767,2.133,2.85,4.583,3.25,7.35l0.3,1.95c0.233,2.7-0.184,5.067-1.25,7.1l8.15-3.8
						l0.025,0.075L79.9,204l0.25-0.4c0.867-1.567,1.367-3.383,1.5-5.45v-2.3l-0.3-1.85c-0.467-2.8-1.55-5.25-3.25-7.35l-2.3-2.2
						l0.35-0.45c0.3-0.433,0.717-0.65,1.25-0.65H77.65z"/>
					<path fill-rule="evenodd" clip-rule="evenodd" fill="#373737" d="M73.3,198.15l-0.15,2.45l-0.9,2.95l-0.8,1.05
						c-0.444,0.621-0.919,1.129-1.425,1.525c-0.717-0.246-1.392-0.604-2.025-1.075l-1.4,0.1L64.9,205
						c-0.279-0.073-0.554-0.165-0.825-0.275c-0.021-0.821,0.254-1.629,0.825-2.425l1.25-1l0.45-0.7l0.35-2.2
						c0-1.133-0.317-2.2-0.95-3.2l-1.1-0.95c-1.533-2.067-1.533-4.1,0-6.1h0.3c1.333,0,2.617,0.417,3.85,1.25l1.55,1.65
						c1.333,1.667,2.15,3.5,2.45,5.5l0.25,1.3V198.15z M64.3,187.5l3.2-3.85c1.567-0.9,2.983-1.15,4.25-0.75
						c1.267,0.5,2.233,1.017,2.9,1.55l-6.2,3.95c-1.467-0.833-2.65-1.183-3.55-1.05L64.3,187.5z"/>
					<path fill-rule="evenodd" clip-rule="evenodd" fill="#1E1E1E" d="M72.25,203.55l5.85,1.05l0.25,0.15l-2.2,1.05H75.8l-2.5,0.7
						h-0.85c-0.855,0-1.663-0.125-2.425-0.375c0.506-0.396,0.981-0.904,1.425-1.525L72.25,203.55z"/>
					<path fill-rule="evenodd" clip-rule="evenodd" fill="#1A1A1A" d="M79.9,204l-1.55,0.75l-0.25-0.15l-5.85-1.05l0.9-2.95
						l0.15-2.45h8.35c-0.133,2.067-0.633,3.883-1.5,5.45L79.9,204z"/>
				</g>
			</g>
		</g>
		<g>
			<g>
				<g>
					<path fill-rule="evenodd" clip-rule="evenodd" fill="#444444" d="M139.8,162.95l1.1,0.95l0.15,0.1
						c1.367,1.533,2.05,3.417,2.05,5.65c0,1.233-0.267,2.383-0.8,3.45l-0.45,0.8l-0.6,0.8l-0.45,0.25l-2.4,0.45l-1.6-0.45l-0.6-0.35
						v-0.25l-0.35-1.4h0.35l1.75-1.1c0.466-0.7,0.7-1.467,0.7-2.3c0-0.933-0.233-1.75-0.7-2.45c-0.467-0.6-1.083-0.9-1.85-0.9h-0.25
						c0.333-1.633,1.1-3.083,2.3-4.35L139.8,162.95z"/>
					<path fill-rule="evenodd" clip-rule="evenodd" fill="#6F6F6F" d="M141.5,162.5l-1.4,0.45h-0.3l-1.65-1.1h1.05l1.15,0.2
						L141.5,162.5z M141.25,174.7l0.6-0.8l0.45-0.8c0.534-1.067,0.8-2.217,0.8-3.45c0-2.233-0.684-4.117-2.05-5.65l-0.15-0.1
						l1.15-0.6l0.5-0.1l0.65,0.7c1.1,1.233,1.65,2.767,1.65,4.6c0,1.667-0.55,3.083-1.65,4.25l-0.65,0.7l0.2,0.45L141.25,174.7z"/>
					<polygon fill-rule="evenodd" clip-rule="evenodd" fill="#C4C4C4" points="140.9,163.9 139.8,162.95 140.1,162.95 141.5,162.5 
						142.55,163.2 142.05,163.3 					"/>
					<path fill-rule="evenodd" clip-rule="evenodd" fill="none" stroke="#2F2F2F" stroke-miterlimit="3" d="M135.85,172.95h0.35
						l1.75-1.1c0.466-0.7,0.7-1.467,0.7-2.3c0-0.933-0.233-1.75-0.7-2.45c-0.467-0.6-1.083-0.9-1.85-0.9h-0.25"/>
				</g>
			</g>
			<g>
				
					<linearGradient id="SVGID_6_" gradientUnits="userSpaceOnUse" x1="39.667" y1="-270.9111" x2="50.992" y2="-270.9111" gradientTransform="matrix(8.830022e-005 1 -1 -0.0013 -112.9897 123.0068)">
					<stop  offset="0" style="stop-color:#464646"/>
					<stop  offset="0.1137" style="stop-color:#222222"/>
					<stop  offset="0.2235" style="stop-color:#FFFFFF"/>
					<stop  offset="0.4078" style="stop-color:#CCCCCC"/>
					<stop  offset="0.4784" style="stop-color:#000000"/>
					<stop  offset="0.6118" style="stop-color:#515151"/>
					<stop  offset="0.6667" style="stop-color:#959595"/>
					<stop  offset="1" style="stop-color:#333333"/>
				</linearGradient>
				<path fill-rule="evenodd" clip-rule="evenodd" fill="url(#SVGID_6_)" d="M260.35,172.8l-20.675-0.55H142.1l-1.3,0.7l-2.4,0.45
					l-0.975-0.275l0.675,1.125H70.9l1.2-0.6h-0.35l1.4-0.525l0.5-0.325l0.9-0.45c0.067-0.033,0.133-0.067,0.2-0.1H55.5v-8.6h204.85
					V172.8z"/>
			</g>
		</g>
		<g>
			<g>
				<g>
					<path fill-rule="evenodd" clip-rule="evenodd" fill="#484848" d="M127.2,168.5l-3.3,1.5l-11.95-1.25h-6.15l-1.45-0.25h-6.1
						l-3.1-0.5l0.65-0.3l10.05-1.65h2.05l15.5,1.5C125.867,167.95,127.133,168.267,127.2,168.5z M97.9,176.4l-0.35,0.05l-1.7,1.1
						c-1.167,0.767-2.783,0.767-4.85,0c-2.4,0.267-3.633-0.117-3.7-1.15l-0.45-0.4l0.2-2l-0.2-0.55v-0.15l0.25,0.4l2.4-0.95h0.6
						l-1.85,1.15l9.3,2.3L97.9,176.4z"/>
					<path fill-rule="evenodd" clip-rule="evenodd" fill="#1E1E1E" d="M109.4,177.25v0.45l-3.2-0.25l-0.15,0.7l-0.2-0.2v-0.5
						l-7.6-1.05H97.9l-0.35-0.2l-9.3-2.3l1.85-1.15l10.1-3.2l5.6-0.8h6.15c-1.167,0.533-1.817,1.633-1.95,3.3l0.2,2.75l-0.8,2.3
						V177.25z"/>
					<path fill-rule="evenodd" clip-rule="evenodd" fill="#2B2B2B" d="M110.2,177.7l-0.8-0.45v-0.15l0.8-2.3l-0.2-2.75
						c0.133-1.667,0.783-2.767,1.95-3.3L123.9,170l0.3,11.85l0.025,0.3l-8.525,0.8l-2.05,2.2l-0.05,0.025l-0.15-5.975v-1.25h-0.25
						L110.2,177.7z"/>
					<path fill-rule="evenodd" clip-rule="evenodd" fill="#504A41" d="M98.25,176.4l-0.7,0.05l0.35-0.05H98.25z M113.2,177.95
						l-1.5,0.35l-1.5-0.6L113.2,177.95z"/>
					<path fill-rule="evenodd" clip-rule="evenodd" fill="#808080" d="M127.2,171.4l-1.1-0.75l-1.2,0.35l-0.7,0.5l0.4,1.95l-0.4,8.4
						L123.9,170l3.3-1.5V171.4z M113.45,179.2l-1.75-0.9l1.5-0.35h0.25V179.2z"/>
					<polygon fill-rule="evenodd" clip-rule="evenodd" fill="#6F6F6F" points="127.2,171.4 127.2,180.75 126.75,181.1 
						124.35,182.15 124.225,182.15 124.2,181.85 124.6,173.45 124.2,171.5 124.9,171 126.1,170.65 					"/>
					<polygon fill-rule="evenodd" clip-rule="evenodd" fill="#555555" points="86.85,176 71.75,175.65 86.85,169.9 95.8,167.7 
						95.15,168 98.25,168.5 104.35,168.5 105.8,168.75 100.2,169.55 90.1,172.75 89.5,172.75 87.1,173.7 86.85,173.3 86.85,173.45 
						87.05,174 					"/>
				</g>
			</g>
		</g>
		<g>
			<g>
				<g>
					
						<linearGradient id="SVGID_7_" gradientUnits="userSpaceOnUse" x1="-348.9873" y1="-219.4004" x2="-332.6123" y2="-219.4004" gradientTransform="matrix(-1 0 0 -1 -236 10)">
						<stop  offset="0" style="stop-color:#595A58"/>
						<stop  offset="0.1137" style="stop-color:#888888"/>
						<stop  offset="0.1569" style="stop-color:#222222"/>
						<stop  offset="0.2235" style="stop-color:#FFFFFF"/>
						<stop  offset="0.4078" style="stop-color:#CCCCCC"/>
						<stop  offset="0.4784" style="stop-color:#000000"/>
						<stop  offset="0.6118" style="stop-color:#515151"/>
						<stop  offset="0.6667" style="stop-color:#959595"/>
						<stop  offset="1" style="stop-color:#333333"/>
					</linearGradient>
					<path fill-rule="evenodd" clip-rule="evenodd" fill="url(#SVGID_7_)" d="M98.55,7.6l2,0.4h10.25l2.15-0.4
						c-2.534,146-2.617,293.216-0.25,441.65v0.7l-1.9,0.6l-5,0.65l-5.15-0.65l-1.95-0.85C96.033,302.866,95.983,155.5,98.55,7.6z"/>
					<path fill-rule="evenodd" clip-rule="evenodd" fill="#B0928A" d="M112.95,7.6L110.8,8h-10.25l-2-0.4h-0.2
						c0-0.267,0.733-0.467,2.2-0.6h10.25L112.95,7.6z"/>
				</g>
			</g>
		</g>
		<g>
			<g>
				<g>
					<path fill-rule="evenodd" clip-rule="evenodd" fill="#1E1E1E" fill-opacity="0.8118" d="M113.1,449.5
						c-5.3,1.533-10.067,1.616-14.3,0.25l0.25-35.1c2.434-22.534,3.65-39.75,3.65-51.65s0.35-16.816,1.05-14.75
						c0.833,1.866,1.4,24.083,1.7,66.65c0.8,11.399,1.883,18.983,3.25,22.75c1.4,3.833,2.667,2.649,3.8-3.551l0.45,14.95
						L113.1,449.5z"/>
					<path fill-rule="evenodd" clip-rule="evenodd" fill="#1D1D1D" fill-opacity="0.7059" d="M113.1,449.5l0.3,0.25
						c0.934,0.233,1.2,0.833,0.8,1.8c-1.5,1.101-4.784,1.601-9.85,1.5c-4.067,0-6.684-0.5-7.85-1.5
						c-0.667-0.366,0.067-0.983,2.2-1.85v-0.4l0.1,0.45C103.033,451.116,107.8,451.033,113.1,449.5z"/>
				</g>
			</g>
		</g>
		<g>
			<g>
				<g>
					<path fill-rule="evenodd" clip-rule="evenodd" fill="#484848" d="M73.65,174.8h1.8l12.35-1.85
						c-0.633,0.167-0.767,0.417-0.4,0.75l2.1,1.9h0.1c0.933,0.7,2.583,1.4,4.95,2.1l3-1.25l-2.75,1.7L94,179.2l-0.25,0.2l0.35,0.15
						l-8.95,0.9l-6.1-0.7c-7.167-0.667-10.433-1.4-9.8-2.2l0.9-0.8l1.5-0.9l1.05-0.45L73.65,174.8z"/>
					<path fill-rule="evenodd" clip-rule="evenodd" fill="#959595" d="M85.15,180.45l8.6,1.25l-2.9-0.1l-13.2-1.25H77.5l-10.55-1.65
						v-0.4h0.1l3.1-1.55l-0.9,0.8c-0.633,0.8,2.633,1.534,9.8,2.2L85.15,180.45z"/>
					<path fill-rule="evenodd" clip-rule="evenodd" fill="#555555" d="M73.65,174.8l0.9-0.45c0.133-0.067,0.25-0.133,0.35-0.2
						c0.367-0.3,0.783-0.533,1.25-0.7l10.7-3.55l2.75,0.55c1.1,0.367,1.1,0.95,0,1.75l-1.35,0.75H87.8l-12.35,1.85H73.65z"/>
					<polygon fill-rule="evenodd" clip-rule="evenodd" fill="#504A41" points="99.5,182.15 93.75,181.7 85.15,180.45 94.1,179.55 
						93.75,179.4 94,179.2 94.8,178.15 97.55,176.45 98.25,176.4 109.4,177.7 108.7,177.55 110.2,177.7 111,177.95 112.75,177.95 
											"/>
					<path fill-rule="evenodd" clip-rule="evenodd" fill="#808080" d="M99.5,182.5v-0.35l13.25-4.2c0.667,0.233,0.9,0.65,0.7,1.25
						l0.15,8.025l-0.75,0.4l0.25-2.025c0.066-2.067-0.317-2.967-1.15-2.7l-2.55,0.65l-8.55-0.8L99.5,182.5z"/>
					<path fill-rule="evenodd" clip-rule="evenodd" fill="#6F6F6F" d="M99.15,194.6h0.45v-0.2l-0.1-11.9l1.35,0.25l8.55,0.8
						l2.55-0.65c0.833-0.267,1.216,0.633,1.15,2.7l-0.25,2.025l-0.15,1.325l-0.4,1.05l-15.6,7.85c-0.001-0.665-0.001-1.332,0-2
						l-5.825,2.825L90.85,198.6L99.15,194.6z"/>
					<path fill-rule="evenodd" clip-rule="evenodd" fill="#2F2F2F" d="M93.75,181.7l5.75,0.45v0.35l0.1,11.9l-0.45,0.2l-8.5-0.6
						v-1.6c1.067-0.066,1.9-0.483,2.5-1.25c0.8-0.767,1.2-1.767,1.2-3c0-1.2-0.4-2.183-1.2-2.95c-0.6-0.8-1.733-1.233-3.4-1.3
						l-1.65-1c0-0.4,0.917-0.833,2.75-1.3L93.75,181.7z"/>
					<polygon fill-rule="evenodd" clip-rule="evenodd" fill="#151515" points="99.15,194.6 90.85,198.6 90.65,194 					"/>
				</g>
			</g>
		</g>
		<g>
			<g>
				<g>
					<g>
						<path fill-rule="evenodd" clip-rule="evenodd" fill="#9B9242" d="M229.7,166.05l-0.101,3.6c-0.899,0.767-2.017,0.733-3.35-0.1
							l0.15-3.6L229.7,166.05z"/>
						<path fill-rule="evenodd" clip-rule="evenodd" fill="#5C5F5F" d="M226.4,165.95l-2.9-0.1l-0.35,3.55l-0.101,1.3l16.9,0.45
							l0.1-1.25l0.25-3.5l-10.6-0.35L226.4,165.95z M283.35,166.3c-0.361,1.962-0.544,4.062-0.55,6.3l-6.25,0.65l-36.875-1H217.6
							l0.25-7.55l27.851-0.1l30.85,2.5l5.65-0.6l1.05-0.2H283.35z"/>
						<path fill-rule="evenodd" clip-rule="evenodd" fill="#373737" d="M226.25,169.55l-3.1-0.15l0.35-3.55l2.9,0.1L226.25,169.55z
							 M229.7,166.05l10.6,0.35l-0.25,3.5l-10.45-0.25L229.7,166.05z"/>
						<path fill-rule="evenodd" clip-rule="evenodd" fill="#404040" d="M223.15,169.4l3.1,0.15c1.333,0.833,2.45,0.867,3.35,0.1
							l10.45,0.25l-0.1,1.25l-16.9-0.45L223.15,169.4z"/>
						<path fill-rule="evenodd" clip-rule="evenodd" fill="#46484A" d="M217.85,164.7l-0.25,7.55h-1l-1.25-1.8
							c0.134-4.467,0.434-7.333,0.9-8.6L217.85,164.7z"/>
						<path fill-rule="evenodd" clip-rule="evenodd" fill="#B9BCBD" d="M307.85,163.3l-0.25,0.45c-8.066-2.9-14.649-3.7-19.75-2.4
							c-0.666,0.333-1.8,1.533-3.399,3.6c-0.267,0.333-0.55,0.7-0.851,1.1l-0.25,0.15v0.1h-0.1l-1.05,0.2l-5.65,0.6l-30.85-2.5
							l-27.851,0.1l-1.6-2.85l29.1,0.75l31.75,3.6l6-0.5l3.75-5.25c0.801-0.3,1.634-0.534,2.5-0.7c4.667-0.9,10.75,0.25,18.25,3.45
							l0.45,0.1H307.85z"/>
						<path fill-rule="evenodd" clip-rule="evenodd" fill="#7E3E23" d="M307.1,176.8h0.15l-0.075,2.425l-0.075-0.075l-21.699-1.7
							l-0.351,0.1l-2.2-4.85v-0.1h-0.05c0.006-2.238,0.188-4.338,0.55-6.3v-0.1l0.25-0.15c0.301-0.4,0.584-0.767,0.851-1.1
							c1.6-2.067,2.733-3.267,3.399-3.6c5.101-1.3,11.684-0.5,19.75,2.4l-0.149,0.15l-0.2,0.35l-0.15,3.45l0.2,0.3l-9.75-2.05h-0.05
							l-0.55,0.1v-0.1l-0.3,1.25l-0.2,6.15l0.05,0.3h0.15L307.1,176.8z"/>
						<path fill-rule="evenodd" clip-rule="evenodd" fill="#CA673E" d="M307.6,163.9l-0.199,4.25L307.3,168l-0.2-0.3l0.15-3.45
							l0.2-0.35H307.6z M307.45,176.65l-0.025,2.7H307.3l-0.125-0.125l0.075-2.425h-0.15l0.25-0.15H307.45z"/>
						<path fill-rule="evenodd" clip-rule="evenodd" fill="#CACECE" d="M307.4,168.15l0.199-4.25v-0.15l0.25-0.45l-0.05,4.6
							L307.4,168.15z M307.425,179.35l0.025-2.7v-0.2l0.425-0.375l-0.125,3.075L307.425,179.35z"/>
						<path fill-rule="evenodd" clip-rule="evenodd" fill="#A7522E" d="M307.45,176.65h-0.101l-0.25,0.15l-10.449-3.15h-0.15
							l-0.05-0.3l0.2-6.15l0.3-1.25v0.1l-0.15,7.25h0.05c4.233,0.567,7.767,1.617,10.601,3.15V176.65z"/>
						<path fill-rule="evenodd" clip-rule="evenodd" fill="#6B7072" d="M297.05,173.2l0.351-0.9
							c4.132,0.662,7.624,1.878,10.475,3.65c0.026,0.019,0.052,0.035,0.075,0.05l-0.075,0.075l-0.425,0.375
							c-2.834-1.534-6.367-2.583-10.601-3.15L297.05,173.2z"/>
						<polygon fill-rule="evenodd" clip-rule="evenodd" fill="#505252" points="296.95,166.05 297.5,165.95 297.55,165.95 
							297.4,172.3 297.05,173.2 296.8,173.3 						"/>
					</g>
				</g>
				<g>
					<g>
						<path fill-rule="evenodd" clip-rule="evenodd" fill="#E2DABE" d="M226.6,163.65l1.15-0.8l-2.65,0.45
							c-0.066-0.066-0.166-0.167-0.3-0.3c0.134-0.1,0.434-0.217,0.9-0.35c0.666-0.167,1.467-0.25,2.399-0.25
							c0.867,0,1.667,0.083,2.4,0.25c0.4,0.133,0.684,0.25,0.85,0.35c-0.166,0.267-0.449,0.417-0.85,0.45
							c-0.733,0.2-1.533,0.3-2.4,0.3C227.566,163.75,227.066,163.717,226.6,163.65z"/>
						<path fill-rule="evenodd" clip-rule="evenodd" fill="#A59249" d="M225.1,163.3c0.167,0.067,0.367,0.117,0.601,0.15
							c0.3,0.133,0.6,0.2,0.899,0.2c0.467,0.067,0.967,0.1,1.5,0.1c0.867,0,1.667-0.1,2.4-0.3c0.4-0.034,0.684-0.184,0.85-0.45
							c0.067,0.133,0.101,0.267,0.101,0.4c0,0.167-0.316,0.333-0.95,0.5c-0.733,0.233-1.533,0.35-2.4,0.35
							c-0.767,0-1.449-0.083-2.05-0.25c-0.1,0-0.217-0.033-0.35-0.1c-0.634-0.167-0.95-0.333-0.95-0.5c0-0.133,0.017-0.267,0.05-0.4
							C224.934,163.133,225.033,163.233,225.1,163.3z"/>
						<path fill-rule="evenodd" clip-rule="evenodd" fill="#FFFFFF" d="M226.6,163.65c-0.3,0-0.6-0.066-0.899-0.2
							c-0.233-0.034-0.434-0.083-0.601-0.15l2.65-0.45L226.6,163.65z"/>
					</g>
				</g>
			</g>
		</g>
	</g>
</g>
<g id="Layer_1">
	<g>
		<g>
			<g>
				<polygon fill-rule="evenodd" clip-rule="evenodd" fill="#1D1D1D" fill-opacity="0.7059" points="91.8,435.2 91.65,435.55 
					91.65,434.95 				"/>
			</g>
		</g>
		<g>
			<g>
				<g>
					<polygon fill-rule="evenodd" clip-rule="evenodd" fill="#7B5B4B" points="21.4,442 16.1,439.25 156.55,439.25 202.35,455.65 
						102.85,456.8 102.85,456.95 51.3,457.15 					"/>
					<path fill-rule="evenodd" clip-rule="evenodd" fill="#C29A87" d="M202.35,455.65l8.15,2.899l-105.25-0.2l4.4,0.101
						c-2.4,0-4.667,0-6.8,0v0.1c-1,0-1.8,0-2.4,0c-0.3,0-0.617,0-0.95,0H50.6l-11.85-6.3C25.883,444.95,20.1,441.533,21.4,442
						l29.9,15.15l51.55-0.2v-0.15L202.35,455.65z"/>
					<path fill-rule="evenodd" clip-rule="evenodd" fill="#4F3F37" d="M210.5,458.55L226.3,485h-49.85v-0.2l-3.55-9.7h-11.75H85.7
						l-3.8,9.9H42l3.7-11.6l4.9-14.851h48.9c0.333,0,0.65,0,0.95,0c0.6,0,1.4,0,2.4,0v-0.1c2.133,0,4.4,0,6.8,0l-4.4-0.101
						L210.5,458.55z"/>
					<path fill-rule="evenodd" clip-rule="evenodd" fill="#A87E69" d="M21.4,442c-1.3-0.467,4.483,2.95,17.35,10.25l-24.25-13h1.6
						L21.4,442z"/>
					<polygon fill-rule="evenodd" clip-rule="evenodd" fill="#644739" points="14.5,439.25 38.75,452.25 50.6,458.55 45.7,473.4 
						41.55,484.75 32.8,479.15 35,471.3 24.6,465.45 14.75,459.9 11.4,465.1 3.55,459.95 					"/>
					<polygon fill-rule="evenodd" clip-rule="evenodd" fill="#513F36" points="42,485 41.55,484.75 45.7,473.4 					"/>
					<path fill-rule="evenodd" clip-rule="evenodd" fill="#41342E" d="M176.45,484.8l-4.351-3.149L161.15,475.1h11.75L176.45,484.8z
						 M24.6,465.45l-12.85-0.2l-0.35-0.15l3.35-5.199L24.6,465.45z"/>
				</g>
			</g>
		</g>
		<g>
			<g>
				<g>
					<path fill-rule="evenodd" clip-rule="evenodd" fill="#444444" d="M130,164.2h-0.15l-1.5,0.9l-0.45,0.6l-0.35,1.85l0.8,2.3
						l0.85,0.8l0.65,0.3c2.333,0.333,3.25,1.15,2.75,2.45l2.2-0.45l0.25-0.15l0.6,1.3l0.45,0.65l-7.15-0.65l-1.75,0.1v-7.7
						c-0.067-0.233-1.333-0.55-3.8-0.95l0.25-1.5l1.6-2.5c1.4-1.4,3.017-2.083,4.85-2.05l2.05,0.35
						C132.617,162.45,131.9,163.9,130,164.2z"/>
					<path fill-rule="evenodd" clip-rule="evenodd" fill="#151515" d="M128.95,178.35l-1.75,0.8v-4.95l1.75-0.1l7.15,0.65
						L128.95,178.35z M130,164.2h0.1c0.767,0,1.383,0.3,1.85,0.9c0.466,0.7,0.7,1.517,0.7,2.45c0,0.833-0.233,1.6-0.7,2.3l-1.75,1.1
						h-0.35l-0.65-0.3l-0.85-0.8l-0.8-2.3l0.35-1.85l0.45-0.6l1.5-0.9H130z M64.9,192.25l1.1,0.95c0.633,1,0.95,2.066,0.95,3.2
						c0.066,1.233-0.2,2.2-0.8,2.9l-1.25,1l-1.05,0.1l-2.45-1.5c-0.733-0.833-1.1-1.867-1.1-3.1l1-3.05
						c0.633-0.767,1.434-1.15,2.4-1.15L64.9,192.25z"/>
					<polygon fill-rule="evenodd" clip-rule="evenodd" fill="#666666" points="137.1,172.6 136.3,173.25 135.65,174.1 135.05,172.8 
						135.25,172.7 136.55,171.55 					"/>
					<polygon fill-rule="evenodd" clip-rule="evenodd" fill="#6F6F6F" points="137.1,172.6 138.6,175.1 129.15,179.95 
						128.95,178.35 136.1,174.75 135.65,174.1 136.3,173.25 					"/>
					<path fill-rule="evenodd" clip-rule="evenodd" fill="#373737" d="M64.9,192.25l-1.2-0.65c-0.967,0-1.767,0.383-2.4,1.15
						l-1,3.05c0,1.233,0.367,2.267,1.1,3.1l2.45,1.5l1.05-0.1c2.5,1.7,2.5,3.267,0,4.7c-1.4-0.367-2.683-1.283-3.85-2.75
						c-1.533-1.967-2.4-4.267-2.6-6.9c-0.167-2.667,0.4-4.917,1.7-6.75l2.1-1.85l2.5-0.6h0.15C67.8,188.517,67.8,190.55,64.9,192.25
						z"/>
					<path fill-rule="evenodd" clip-rule="evenodd" fill="none" stroke="#2F2F2F" stroke-miterlimit="3" d="M129.85,170.95
						l-0.65-0.3l-0.85-0.8l-0.8-2.3l0.35-1.85l0.45-0.6l1.5-0.9 M62.25,186.75l-2.1,1.85c-1.3,1.833-1.867,4.083-1.7,6.75
						c0.2,2.633,1.066,4.933,2.6,6.9c1.167,1.467,2.45,2.383,3.85,2.75 M64.9,200.3l-1.05,0.1l-2.45-1.5
						c-0.733-0.833-1.1-1.867-1.1-3.1l1-3.05c0.633-0.767,1.434-1.15,2.4-1.15l1.2,0.65"/>
				</g>
			</g>
		</g>
		<g>
			<g>
				<g>
					<path fill-rule="evenodd" clip-rule="evenodd" fill="#2F2F2F" d="M90.65,190.4v1.6l-6.8-0.2l-0.2-0.45
						c-0.4-2.767-1.483-5.217-3.25-7.35l-2.75-2.65l-1.95-0.95l-2.65-0.55l-1.3,0.1l-5,1.4l0.2-4.65l10.55,1.65h0.15l13.2,1.25
						l0.15,2.3h-0.6c-1.133,0-2.117,0.434-2.95,1.3c-0.7,0.767-1.05,1.75-1.05,2.95c0,1.233,0.35,2.233,1.05,3l2.95,1.25H90.65z"/>
					<path fill-rule="evenodd" clip-rule="evenodd" fill="#151515" d="M83.85,191.8l6.8,0.2c3.767,0.8,3.833,2.333,0.2,4.6
						l-3.05,1.5l-5.1,2.3c1.066-2.033,1.483-4.4,1.25-7.1L83.85,191.8z M91,181.9c0.833,0.067,1.55,0.5,2.15,1.3
						c0.8,0.767,1.2,1.75,1.2,2.95c0,1.233-0.4,2.233-1.2,3c-0.6,0.767-1.433,1.184-2.5,1.25H90.4l-2.95-1.25
						c-0.7-0.767-1.05-1.767-1.05-3c0-1.2,0.35-2.183,1.05-2.95c0.833-0.867,1.816-1.3,2.95-1.3H91z"/>
					<path fill-rule="evenodd" clip-rule="evenodd" fill="none" stroke="#2F2F2F" stroke-miterlimit="3" d="M90.65,190.4H90.4
						l-2.95-1.25c-0.7-0.767-1.05-1.767-1.05-3c0-1.2,0.35-2.183,1.05-2.95c0.833-0.867,1.816-1.3,2.95-1.3H91 M90.85,179.6
						l-13.2-1.25H77.5l-10.55-1.65l-0.2,4.65 M83.85,191.8l6.8,0.2 M87.8,198.1l3.05-1.5"/>
				</g>
			</g>
		</g>
		<g>
			<g>
				<g>
					<path fill-rule="evenodd" clip-rule="evenodd" fill="#A0874E" d="M129.55,165.25l1.25,0.65v0.1l0.7,1.75l-0.25,0.7l-0.9,1.75
						l-0.95-0.15l-1.5-0.65l-0.55-1.4v-0.25l0.35-1.5l0.2-0.25c0.467-0.5,0.967-0.75,1.5-0.75H129.55z"/>
					
						<linearGradient id="SVGID_8_" gradientUnits="userSpaceOnUse" x1="114.4375" y1="-180.9526" x2="122.6863" y2="-180.9526" gradientTransform="matrix(0.3389 0.9408 -0.9408 0.3389 -73.3057 114.322)">
						<stop  offset="0.1137" style="stop-color:#6F5C33"/>
						<stop  offset="0.4745" style="stop-color:#EEEEEC"/>
						<stop  offset="0.6667" style="stop-color:#6F5C33"/>
						<stop  offset="0.8235" style="stop-color:#9D8448"/>
					</linearGradient>
					<polygon fill-rule="evenodd" clip-rule="evenodd" fill="url(#SVGID_8_)" points="145.3,164.3 130.35,170.2 131.25,168.45 
						131.5,167.75 130.8,166 130.8,165.9 129.55,165.25 129.4,165.1 142.55,160.95 144.25,161.55 144.45,161.75 145.3,162.8 
						145.3,162.95 145.25,163.15 					"/>
					
						<linearGradient id="SVGID_9_" gradientUnits="userSpaceOnUse" x1="-398.1875" y1="-152.4697" x2="-381.1125" y2="-152.4697" gradientTransform="matrix(-1 0 0 -1 -236 10)">
						<stop  offset="0.3137" style="stop-color:#6F5C33"/>
						<stop  offset="0.4784" style="stop-color:#77776B"/>
						<stop  offset="0.6667" style="stop-color:#6F5C33"/>
						<stop  offset="0.8235" style="stop-color:#9D8448"/>
					</linearGradient>
					<path fill-rule="evenodd" clip-rule="evenodd" fill="url(#SVGID_9_)" d="M156.35,159.8c0.6,0.567,0.9,1.15,0.9,1.75
						c0,0.934-0.65,1.767-1.95,2.5c-1.767,0.867-3.566,1.217-5.4,1.05c-2.533-0.133-4.066-0.4-4.6-0.8l-0.05-1.15l0.05-0.2l0.2-0.15
						l3,0.35C153.467,163.15,156.083,162.033,156.35,159.8z"/>
					
						<linearGradient id="SVGID_10_" gradientUnits="userSpaceOnUse" x1="-93.6372" y1="-302.8809" x2="-81.6224" y2="-302.8809" gradientTransform="matrix(-0.4154 0.9096 -0.9096 -0.4154 -162.4685 114.4143)">
						<stop  offset="0.1137" style="stop-color:#6F5C33"/>
						<stop  offset="0.4745" style="stop-color:#EEEEEC"/>
						<stop  offset="0.6667" style="stop-color:#6F5C33"/>
						<stop  offset="0.8235" style="stop-color:#9D8448"/>
					</linearGradient>
					<path fill-rule="evenodd" clip-rule="evenodd" fill="url(#SVGID_10_)" d="M142.55,160.95c0.067-0.434,0.75-1.05,2.05-1.85
						c0.667-0.533,2.433-0.9,5.3-1.1c2.067,0,3.867,0.367,5.4,1.1l1.05,0.7c-0.267,2.233-2.883,3.35-7.85,3.35l-3-0.35l-0.2,0.15
						v-0.15l-0.85-1.05l-0.2-0.2L142.55,160.95z"/>
					
						<linearGradient id="SVGID_11_" gradientUnits="userSpaceOnUse" x1="122.2114" y1="-100.9722" x2="132.1369" y2="-100.9722" gradientTransform="matrix(0.3753 0.9269 -0.9269 0.3753 -69.0802 112.4979)">
						<stop  offset="0.1137" style="stop-color:#6F5C33"/>
						<stop  offset="0.4745" style="stop-color:#EEEEEC"/>
						<stop  offset="0.6667" style="stop-color:#6F5C33"/>
						<stop  offset="0.8235" style="stop-color:#9D8448"/>
					</linearGradient>
					<path fill-rule="evenodd" clip-rule="evenodd" fill="url(#SVGID_11_)" d="M31.4,206.55c0,0.834,0.033,1.584,0.1,2.25
						c0.3,1.867,1.067,3.283,2.3,4.25c1.1,0.934,2.833,1.4,5.2,1.4c2,0,3.883-0.884,5.65-2.65c1.434-1.233,2.317-2.649,2.65-4.25
						c0.434-1.667,0.667-2.667,0.7-3c-0.567-1.066-0.683-2.05-0.35-2.95l28.3-11.4L47.25,201l-0.65-0.6l-0.25-0.1
						c0.7-0.366,1.767-0.866,3.2-1.5l59.4-24.6c1.966-0.7,3.383-0.517,4.25,0.55l1.25,2v1.6l-1.35,2.15l-61.35,24.85l-2.3,0.7
						c-0.133,1.233-0.55,2.467-1.25,3.7c-1.367,2.2-3.25,3.85-5.65,4.95c-2.667,1.066-5.033,1.283-7.1,0.649
						c-2.167-0.666-3.55-2.033-4.15-4.1c-0.233-0.634-0.35-1.3-0.35-2C30.883,208.35,31.033,207.45,31.4,206.55z"/>
					
						<linearGradient id="SVGID_12_" gradientUnits="userSpaceOnUse" x1="-190.6128" y1="259.8203" x2="-163.7932" y2="259.8203" gradientTransform="matrix(0.6296 -0.7769 0.7769 0.6296 -47.5908 -89.8237)">
						<stop  offset="0" style="stop-color:#9D8448"/>
						<stop  offset="0.4863" style="stop-color:#856D39"/>
						<stop  offset="0.7922" style="stop-color:#F5F2E8"/>
						<stop  offset="1" style="stop-color:#D9CFAE"/>
					</linearGradient>
					<path fill-rule="evenodd" clip-rule="evenodd" fill="url(#SVGID_12_)" d="M31.4,206.55l0.7-1.55
						c1.233-2.267,3.117-3.9,5.65-4.9c2.433-1.067,4.733-1.267,6.9-0.6l1.7,0.8l0.25,0.1l0.65,0.6l28.7-10.8l-28.3,11.4
						c-0.333,0.9-0.217,1.883,0.35,2.95c-0.033,0.333-0.267,1.333-0.7,3c-0.333,1.601-1.216,3.017-2.65,4.25
						c-1.767,1.767-3.65,2.65-5.65,2.65c-2.367,0-4.1-0.467-5.2-1.4c-1.233-0.967-2-2.383-2.3-4.25
						C31.433,208.134,31.4,207.384,31.4,206.55z M40.95,201.25c-4.233-0.3-7.067,1.983-8.5,6.85
						C34.05,204.367,36.883,202.083,40.95,201.25z"/>
					<path fill-rule="evenodd" clip-rule="evenodd" fill="#FAF8F3" d="M40.95,201.25c-4.067,0.833-6.9,3.117-8.5,6.85
						C33.883,203.233,36.717,200.95,40.95,201.25z"/>
					<path fill-rule="evenodd" clip-rule="evenodd" fill="none" stroke="#7E6734" stroke-miterlimit="3" d="M129.55,165.25h-0.15
						c-0.533,0-1.033,0.25-1.5,0.75l-0.2,0.25l-0.35,1.5V168l0.55,1.4l1.5,0.65l0.95,0.15l0.9-1.75l0.25-0.7l-0.7-1.75v-0.1
						L129.55,165.25z M142.55,160.95l-13.15,4.15l0.15,0.15 M145.3,162.95v-0.15l-0.85-1.05l-0.2-0.2l-1.7-0.6 M145.3,164.3
						l-0.05-1.15l0.05-0.2 M156.35,159.8l-1.05-0.7c-1.533-0.733-3.333-1.1-5.4-1.1c-2.867,0.2-4.633,0.567-5.3,1.1
						c-1.3,0.8-1.983,1.417-2.05,1.85 M145.3,164.3c0.534,0.4,2.067,0.667,4.6,0.8c1.833,0.167,3.633-0.184,5.4-1.05
						c1.3-0.733,1.95-1.566,1.95-2.5c0-0.6-0.3-1.183-0.9-1.75 M130.35,170.2l14.95-5.9"/>
				</g>
			</g>
		</g>
		<g>
			<g>
				<g>
					<path fill-rule="evenodd" clip-rule="evenodd" fill="#6F6F6F" d="M76.15,205.8l1.5-1.1l1.5-1.5l1-1.6
						c0.867-1.567,1.367-3.383,1.5-5.45v-2.3l-0.3-1.85c-0.467-2.8-1.55-5.25-3.25-7.35l-2.3-2.2l0.35-0.45
						c0.3-0.433,0.717-0.65,1.25-0.65h0.25L80.4,184c1.767,2.133,2.85,4.583,3.25,7.35l0.3,1.95c0.233,2.7-0.184,5.067-1.25,7.1
						l8.15-3.8l0.4,2L76.15,205.8z M73.15,180.9l-2.55-0.4h-1.1l2.25-0.55l1.3-0.1l1.85,0.45L73.15,180.9z"/>
					<path fill-rule="evenodd" clip-rule="evenodd" fill="#1A1A1A" d="M72.25,201.55l0.9-2.95l0.15-2.45h8.35
						c-0.133,2.067-0.633,3.883-1.5,5.45l-1,1.6l-1.05-0.6L72.25,201.55z"/>
					<path fill-rule="evenodd" clip-rule="evenodd" fill="#1E1E1E" d="M76.15,205.8H75.8l-2.5,0.7h-0.85
						c-1.667,0-3.15-0.483-4.45-1.45c1.3-0.233,2.45-1.05,3.45-2.45l0.8-1.05l5.85,1.05l1.05,0.6l-1.5,1.5L76.15,205.8z"/>
					<path fill-rule="evenodd" clip-rule="evenodd" fill="#262626" d="M69.5,180.5h1.1l2.55,0.4c0.867,0.434,1.717,0.917,2.55,1.45
						l0.1,0.1l2.3,2.2c1.7,2.1,2.783,4.55,3.25,7.35l0.3,1.85v2.3H73.3v-0.3l-0.25-1.3c-0.3-2-1.117-3.833-2.45-5.5l-1.55-1.65
						c-1.233-0.833-2.517-1.25-3.85-1.25h-0.3h-0.15l-2.5,0.6l1.6-2.65l1.85-1.95l1.05-0.8L69.5,180.5z M67.5,181.65l-3.2,3.85
						l0.6-0.15c0.9-0.133,2.083,0.217,3.55,1.05l6.2-3.95c-0.667-0.534-1.633-1.05-2.9-1.55C70.483,180.5,69.067,180.75,67.5,181.65
						z"/>
					<path fill-rule="evenodd" clip-rule="evenodd" fill="#373737" d="M67.5,181.65c1.567-0.9,2.983-1.15,4.25-0.75
						c1.267,0.5,2.233,1.017,2.9,1.55l-6.2,3.95c-1.467-0.833-2.65-1.183-3.55-1.05l-0.6,0.15L67.5,181.65z M64.9,192.25
						c-1.533-2.066-1.533-4.1,0-6.1h0.3c1.333,0,2.617,0.417,3.85,1.25l1.55,1.65c1.333,1.667,2.15,3.5,2.45,5.5l0.25,1.3v0.3
						l-0.15,2.45l-0.9,2.95l-0.8,1.05c-1,1.4-2.15,2.217-3.45,2.45l-1.4,0.1L64.9,205c-1.1-1.6-1.1-3.167,0-4.7l1.25-1l0.45-0.7
						l0.35-2.2c0-1.133-0.317-2.2-0.95-3.2L64.9,192.25z"/>
					<path fill-rule="evenodd" clip-rule="evenodd" fill="#9D9D9D" d="M75.8,182.45l-0.1-0.1c-0.833-0.533-1.684-1.017-2.55-1.45
						l1.75-0.6l0.8,0.1l1.95,0.95H77.4c-0.533,0-0.95,0.217-1.25,0.65L75.8,182.45z"/>
					<path fill-rule="evenodd" clip-rule="evenodd" fill="none" stroke="#2F2F2F" stroke-miterlimit="3" d="M64.9,192.25l1.1,0.95
						c0.633,1,0.95,2.066,0.95,3.2l-0.35,2.2l-0.45,0.7l-1.25,1"/>
				</g>
			</g>
		</g>
		<g>
			<g>
				<g>
					<path fill-rule="evenodd" clip-rule="evenodd" fill="#444444" d="M138.15,159.85l1.65,1.1l1.1,0.95l0.15,0.1
						c1.367,1.533,2.05,3.417,2.05,5.65c0,1.233-0.267,2.383-0.8,3.45l-0.45,0.8l-0.6,0.8l-0.45,0.25l-2.4,0.45l-1.6-0.45l-0.6-0.35
						v-0.25l-0.35-1.4h0.35l1.75-1.1c0.466-0.7,0.7-1.467,0.7-2.3c0-0.933-0.233-1.75-0.7-2.45c-0.467-0.6-1.083-0.9-1.85-0.9h-0.25
						C136.183,162.567,136.95,161.117,138.15,159.85z"/>
					<path fill-rule="evenodd" clip-rule="evenodd" fill="#6F6F6F" d="M139.8,160.95l-1.65-1.1h1.05l1.15,0.2l1.15,0.45l-1.4,0.45
						H139.8z M140.9,161.9l1.15-0.6l0.5-0.1l0.65,0.7c1.1,1.233,1.65,2.767,1.65,4.6c0,1.667-0.55,3.083-1.65,4.25l-0.65,0.7
						l0.2,0.45l-1.5,0.8l0.6-0.8l0.45-0.8c0.534-1.067,0.8-2.217,0.8-3.45c0-2.233-0.684-4.117-2.05-5.65L140.9,161.9z"/>
					<polygon fill-rule="evenodd" clip-rule="evenodd" fill="#C4C4C4" points="142.55,161.2 142.05,161.3 140.9,161.9 139.8,160.95 
						140.1,160.95 141.5,160.5 					"/>
					<path fill-rule="evenodd" clip-rule="evenodd" fill="none" stroke="#2F2F2F" stroke-miterlimit="3" d="M135.85,170.95h0.35
						l1.75-1.1c0.466-0.7,0.7-1.467,0.7-2.3c0-0.933-0.233-1.75-0.7-2.45c-0.467-0.6-1.083-0.9-1.85-0.9h-0.25"/>
				</g>
			</g>
			<g>
				
					<linearGradient id="SVGID_13_" gradientUnits="userSpaceOnUse" x1="37.667" y1="-270.9111" x2="48.992" y2="-270.9111" gradientTransform="matrix(8.830022e-005 1 -1 -0.0013 -112.9897 123.0068)">
					<stop  offset="0" style="stop-color:#464646"/>
					<stop  offset="0.1137" style="stop-color:#222222"/>
					<stop  offset="0.2235" style="stop-color:#FFFFFF"/>
					<stop  offset="0.4078" style="stop-color:#CCCCCC"/>
					<stop  offset="0.4784" style="stop-color:#000000"/>
					<stop  offset="0.6118" style="stop-color:#515151"/>
					<stop  offset="0.6667" style="stop-color:#959595"/>
					<stop  offset="1" style="stop-color:#333333"/>
				</linearGradient>
				<rect x="55.5" y="161.65" fill-rule="evenodd" clip-rule="evenodd" fill="url(#SVGID_13_)" width="204.85" height="10.6"/>
			</g>
		</g>
		<g>
			<g>
				<g>
					<path fill-rule="evenodd" clip-rule="evenodd" fill="#484848" d="M127.2,166.5l-3.3,1.5l-11.95-1.25h-6.15l-1.45-0.25h-6.1
						l-3.1-0.5l0.65-0.3l10.05-1.65h2.05l15.5,1.5C125.867,165.95,127.133,166.267,127.2,166.5z M86.85,174l0.2-2l-0.2-0.55v-0.15
						l0.25,0.4l2.4-0.95h0.6l-1.85,1.15l9.3,2.3l0.35,0.2l-0.35,0.05l-1.7,1.1c-1.167,0.767-2.783,0.767-4.85,0
						c-2.4,0.267-3.633-0.116-3.7-1.15L86.85,174z"/>
					<polygon fill-rule="evenodd" clip-rule="evenodd" fill="#555555" points="86.85,174 71.75,173.65 86.85,167.9 95.8,165.7 
						95.15,166 98.25,166.5 104.35,166.5 105.8,166.75 100.2,167.55 90.1,170.75 89.5,170.75 87.1,171.7 86.85,171.3 86.85,171.45 
						87.05,172 					"/>
					<path fill-rule="evenodd" clip-rule="evenodd" fill="#1E1E1E" d="M111.95,166.75c-1.167,0.533-1.817,1.633-1.95,3.3l0.2,2.75
						l-0.8,2.3v0.15v0.45l-3.2-0.25l-0.15,0.7l-0.2-0.2v-0.5l-7.6-1.05H97.9l-0.35-0.2l-9.3-2.3l1.85-1.15l10.1-3.2l5.6-0.8H111.95z
						"/>
					<path fill-rule="evenodd" clip-rule="evenodd" fill="#6F6F6F" d="M124.35,182.15l-0.15-2.3l0.4-8.4l-0.4-1.95l0.7-0.5l1.2-0.35
						l1.1,0.75v9.75l1.75-0.8c1.7-0.467,1.767,0.066,0.2,1.6l-1.95,0.8l-0.45,0.35L124.35,182.15z"/>
					<path fill-rule="evenodd" clip-rule="evenodd" fill="#808080" d="M127.2,166.5v2.9l-1.1-0.75l-1.2,0.35l-0.7,0.5l0.4,1.95
						l-0.4,8.4L123.9,168L127.2,166.5z M113.45,177.2l-1.75-0.9l1.5-0.35h0.25V177.2z"/>
					<path fill-rule="evenodd" clip-rule="evenodd" fill="#2B2B2B" d="M124.35,182.15l-8.65,0.8l-2.05,2.2l-0.2-7.95v-1.25h-0.25
						l-3-0.25l-0.8-0.45v-0.15l0.8-2.3l-0.2-2.75c0.133-1.667,0.783-2.767,1.95-3.3L123.9,168l0.3,11.85L124.35,182.15z"/>
					<path fill-rule="evenodd" clip-rule="evenodd" fill="#504A41" d="M98.25,174.4l-0.7,0.05l0.35-0.05H98.25z M111.7,176.3
						l-1.5-0.6l3,0.25L111.7,176.3z"/>
					<path fill-rule="evenodd" clip-rule="evenodd" fill="none" stroke="#2F2F2F" stroke-miterlimit="3" d="M105.8,166.75l-5.6,0.8
						l-10.1,3.2l-1.85,1.15l9.3,2.3l0.35,0.2h0.35 M111.7,176.3l1.5-0.35l-3-0.25 M113.2,175.95h0.25v1.25"/>
				</g>
			</g>
		</g>
		<g>
			<g>
				<g>
					
						<linearGradient id="SVGID_14_" gradientUnits="userSpaceOnUse" x1="-348.9873" y1="-217.4004" x2="-332.6123" y2="-217.4004" gradientTransform="matrix(-1 0 0 -1 -236 10)">
						<stop  offset="0" style="stop-color:#595A58"/>
						<stop  offset="0.1137" style="stop-color:#888888"/>
						<stop  offset="0.1569" style="stop-color:#222222"/>
						<stop  offset="0.2235" style="stop-color:#FFFFFF"/>
						<stop  offset="0.4078" style="stop-color:#CCCCCC"/>
						<stop  offset="0.4784" style="stop-color:#000000"/>
						<stop  offset="0.6118" style="stop-color:#515151"/>
						<stop  offset="0.6667" style="stop-color:#959595"/>
						<stop  offset="1" style="stop-color:#333333"/>
					</linearGradient>
					<path fill-rule="evenodd" clip-rule="evenodd" fill="url(#SVGID_14_)" d="M98.55,5.6l2,0.4h10.25l2.15-0.4
						c-2.534,146-2.617,293.216-0.25,441.65v0.7l-1.9,0.6l-5,0.65l-5.15-0.65l-1.95-0.85C96.033,300.866,95.983,153.5,98.55,5.6z"/>
					<path fill-rule="evenodd" clip-rule="evenodd" fill="#B0928A" d="M112.95,5.6L110.8,6h-10.25l-2-0.4h-0.2
						c0-0.267,0.733-0.467,2.2-0.6h10.25L112.95,5.6z"/>
				</g>
			</g>
		</g>
		<g>
			<g>
				<g>
					<path fill-rule="evenodd" clip-rule="evenodd" fill="#1E1E1E" fill-opacity="0.8118" d="M113.1,447.5
						c-5.3,1.533-10.067,1.616-14.3,0.25l0.25-35.1c2.434-22.534,3.65-39.75,3.65-51.65s0.35-16.816,1.05-14.75
						c0.833,1.866,1.4,24.083,1.7,66.65c0.8,11.399,1.883,18.983,3.25,22.75c1.4,3.833,2.667,2.649,3.8-3.551l0.45,14.95
						L113.1,447.5z"/>
					<path fill-rule="evenodd" clip-rule="evenodd" fill="#1D1D1D" fill-opacity="0.7059" d="M113.1,447.5l0.3,0.25
						c0.934,0.233,1.2,0.833,0.8,1.8c-1.5,1.101-4.784,1.601-9.85,1.5c-4.067,0-6.684-0.5-7.85-1.5
						c-0.667-0.366,0.067-0.983,2.2-1.85v-0.4l0.1,0.45C103.033,449.116,107.8,449.033,113.1,447.5z"/>
				</g>
			</g>
		</g>
		<g>
			<g>
				<g>
					<polygon fill-rule="evenodd" clip-rule="evenodd" fill="#504A41" points="99.5,180.15 93.75,179.7 85.15,178.45 94.1,177.55 
						93.75,177.4 94,177.2 94.8,176.15 97.55,174.45 98.25,174.4 107.3,175.55 109.4,175.7 108.7,175.55 110.2,175.7 111,175.95 
						112.75,175.95 					"/>
					<path fill-rule="evenodd" clip-rule="evenodd" fill="#808080" d="M112.3,188l0.4-1.05l0.4-3.35
						c0.066-2.067-0.317-2.967-1.15-2.7l-2.55,0.65l-8.55-0.8l-1.35-0.25v-0.35l13.25-4.2c0.667,0.233,0.9,0.65,0.7,1.25l0.2,10
						L112.3,188z"/>
					<path fill-rule="evenodd" clip-rule="evenodd" fill="#6F6F6F" d="M99.15,192.6h0.45v-0.2l-0.1-11.9l1.35,0.25l8.55,0.8
						l2.55-0.65c0.833-0.267,1.216,0.633,1.15,2.7l-0.4,3.35l-0.4,1.05l-21.05,10.6l-0.4-2L99.15,192.6z"/>
					<path fill-rule="evenodd" clip-rule="evenodd" fill="#2F2F2F" d="M89.75,181.9l-1.65-1c0-0.4,0.917-0.833,2.75-1.3l2.9,0.1
						l5.75,0.45v0.35l0.1,11.9l-0.45,0.2l-8.5-0.6v-1.6c1.067-0.066,1.9-0.483,2.5-1.25c0.8-0.767,1.2-1.767,1.2-3
						c0-1.2-0.4-2.183-1.2-2.95C92.55,182.4,91.417,181.967,89.75,181.9z"/>
					<path fill-rule="evenodd" clip-rule="evenodd" fill="#555555" d="M87.8,170.95l-12.35,1.85h-1.8l0.9-0.45
						c0.133-0.067,0.25-0.133,0.35-0.2c0.367-0.3,0.783-0.533,1.25-0.7l10.7-3.55l2.75,0.55c1.1,0.367,1.1,0.95,0,1.75l-1.35,0.75
						H87.8z"/>
					<path fill-rule="evenodd" clip-rule="evenodd" fill="#484848" d="M70.15,174.75l1.5-0.9l1.05-0.45l0.95-0.6h1.8l12.35-1.85
						c-0.633,0.167-0.767,0.417-0.4,0.75l2.1,1.9h0.1c0.933,0.7,2.583,1.4,4.95,2.1l3-1.25l-2.75,1.7L94,177.2l-0.25,0.2l0.35,0.15
						l-8.95,0.9l-6.1-0.7c-7.167-0.667-10.433-1.4-9.8-2.2L70.15,174.75z"/>
					<path fill-rule="evenodd" clip-rule="evenodd" fill="#959595" d="M93.75,179.7l-2.9-0.1l-13.2-1.25H77.5l-10.55-1.65v-0.4h0.1
						l3.1-1.55l-0.9,0.8c-0.633,0.8,2.633,1.534,9.8,2.2l6.1,0.7L93.75,179.7z"/>
					<polygon fill-rule="evenodd" clip-rule="evenodd" fill="#151515" points="99.15,192.6 90.85,196.6 90.65,192 					"/>
					<path fill-rule="evenodd" clip-rule="evenodd" fill="none" stroke="#2F2F2F" stroke-miterlimit="3" d="M110.2,175.7l-1.5-0.15
						l0.7,0.15l-2.1-0.15l-9.05-1.15 M108.7,175.55h-1.4 M89.75,181.9c1.667,0.067,2.8,0.5,3.4,1.3c0.8,0.767,1.2,1.75,1.2,2.95
						c0,1.233-0.4,2.233-1.2,3c-0.6,0.767-1.433,1.184-2.5,1.25"/>
				</g>
			</g>
		</g>
		<g>
			<g>
				<g>
					<g>
						<path fill-rule="evenodd" clip-rule="evenodd" fill="#9B9242" d="M229.6,167.65c-0.899,0.767-2.017,0.733-3.35-0.1l0.15-3.6
							l3.3,0.1L229.6,167.65z"/>
						<path fill-rule="evenodd" clip-rule="evenodd" fill="#5C5F5F" d="M283.35,164.3c-0.467,2.534-0.633,5.3-0.5,8.3l-6.3,0.65
							l-59-1.6l0.3-8.95l27.851-0.1l30.85,2.5l5.65-0.6l1.05-0.2H283.35z M223.15,167.4l-0.101,1.3l16.9,0.45l0.1-1.25l0.25-3.5
							l-10.6-0.35l-3.3-0.1l-2.9-0.1L223.15,167.4z"/>
						<path fill-rule="evenodd" clip-rule="evenodd" fill="#373737" d="M226.4,163.95l-0.15,3.6l-3.1-0.15l0.35-3.55L226.4,163.95z
							 M240.05,167.9l-10.45-0.25l0.101-3.6l10.6,0.35L240.05,167.9z"/>
						<path fill-rule="evenodd" clip-rule="evenodd" fill="#46484A" d="M217.85,162.7l-0.3,8.95l-2.2-3.2
							c0.134-4.467,0.434-7.333,0.9-8.6L217.85,162.7z"/>
						<path fill-rule="evenodd" clip-rule="evenodd" fill="#B9BCBD" d="M307.85,161.3l-0.25,0.45c-8.066-2.9-14.649-3.7-19.75-2.4
							c-0.666,0.333-1.8,1.533-3.399,3.6c-0.267,0.333-0.55,0.7-0.851,1.1l-0.25,0.15v0.1h-0.1l-1.05,0.2l-5.65,0.6l-30.85-2.5
							l-27.851,0.1l-1.6-2.85l29.1,0.75l31.75,3.6l6-0.5l3.75-5.25c0.801-0.3,1.634-0.534,2.5-0.7c4.667-0.9,10.75,0.25,18.25,3.45
							l0.45,0.1H307.85z"/>
						<path fill-rule="evenodd" clip-rule="evenodd" fill="#7E3E23" d="M307.1,174.8h0.15l-0.15,4.35l-21.699-1.7l-0.351,0.1
							l-2.2-4.85v-0.1c-0.133-3,0.033-5.767,0.5-8.3v-0.1l0.25-0.15c0.301-0.4,0.584-0.767,0.851-1.1
							c1.6-2.067,2.733-3.267,3.399-3.6c5.101-1.3,11.684-0.5,19.75,2.4l-0.149,0.15l-0.2,0.35l-0.15,3.45l0.2,0.3l-9.75-2.05
							l-0.6,0.1v-0.1l-0.3,1.25l-0.2,6.15l0.05,0.3h0.15L307.1,174.8z"/>
						<path fill-rule="evenodd" clip-rule="evenodd" fill="#A7522E" d="M296.8,171.3h0.05c4.233,0.567,7.767,1.617,10.601,3.15v0.2
							h-0.101l-0.25,0.15l-10.449-3.15h-0.15l-0.05-0.3l0.2-6.15l0.3-1.25v0.1L296.8,171.3z"/>
						<polygon fill-rule="evenodd" clip-rule="evenodd" fill="#505252" points="297.4,170.3 297.05,171.2 296.8,171.3 
							296.95,164.05 297.55,163.95 						"/>
						<path fill-rule="evenodd" clip-rule="evenodd" fill="#CA673E" d="M307.6,161.9l-0.199,4.25L307.3,166l-0.2-0.3l0.15-3.45
							l0.2-0.35H307.6z M307.45,174.65l-0.05,4.7H307.3l-0.2-0.2l0.15-4.35h-0.15l0.25-0.15H307.45z"/>
						<path fill-rule="evenodd" clip-rule="evenodd" fill="#CACECE" d="M307.4,166.15l0.199-4.25v-0.15l0.25-0.45l-0.05,4.6
							L307.4,166.15z M307.4,179.35l0.05-4.7v-0.2l0.5-0.45l-0.2,5.15L307.4,179.35z"/>
						<path fill-rule="evenodd" clip-rule="evenodd" fill="#6B7072" d="M296.85,171.3l0.2-0.1l0.351-0.9
							c4.166,0.667,7.683,1.9,10.55,3.7l-0.5,0.45C304.616,172.917,301.083,171.867,296.85,171.3z"/>
						<path fill-rule="evenodd" clip-rule="evenodd" fill="#404040" d="M226.25,167.55c1.333,0.833,2.45,0.867,3.35,0.1l10.45,0.25
							l-0.1,1.25l-16.9-0.45l0.101-1.3L226.25,167.55z"/>
						<path fill-rule="evenodd" clip-rule="evenodd" fill="none" stroke="#423E3E" stroke-miterlimit="3" d="M226.4,163.95l-2.9-0.1
							l-0.35,3.55l-0.101,1.3l16.9,0.45l0.1-1.25l0.25-3.5l-10.6-0.35l-0.101,3.6 M226.25,167.55l0.15-3.6 M229.7,164.05l-3.3-0.1"
							/>
					</g>
				</g>
				<g>
					<g>
						<path fill-rule="evenodd" clip-rule="evenodd" fill="#E2DABE" d="M231.35,161c-0.166,0.267-0.449,0.417-0.85,0.45
							c-0.733,0.2-1.533,0.3-2.4,0.3c-0.533,0-1.033-0.033-1.5-0.1l1.15-0.8l-2.65,0.45c-0.066-0.066-0.166-0.167-0.3-0.3
							c0.134-0.1,0.434-0.217,0.9-0.35c0.666-0.167,1.467-0.25,2.399-0.25c0.867,0,1.667,0.083,2.4,0.25
							C230.9,160.783,231.184,160.9,231.35,161z"/>
						<path fill-rule="evenodd" clip-rule="evenodd" fill="#A59249" d="M226.6,161.65c0.467,0.067,0.967,0.1,1.5,0.1
							c0.867,0,1.667-0.1,2.4-0.3c0.4-0.034,0.684-0.184,0.85-0.45c0.067,0.133,0.101,0.267,0.101,0.4c0,0.167-0.317,0.333-0.95,0.5
							c-0.733,0.233-1.533,0.35-2.4,0.35c-0.767,0-1.449-0.083-2.05-0.25c-0.1,0-0.217-0.033-0.35-0.1
							c-0.634-0.167-0.95-0.333-0.95-0.5c0-0.133,0.017-0.267,0.05-0.4c0.134,0.133,0.233,0.233,0.3,0.3
							c0.167,0.067,0.367,0.117,0.601,0.15C226,161.583,226.3,161.65,226.6,161.65z"/>
						<path fill-rule="evenodd" clip-rule="evenodd" fill="#FFFFFF" d="M225.1,161.3l2.65-0.45l-1.15,0.8
							c-0.3,0-0.6-0.066-0.899-0.2C225.467,161.417,225.267,161.367,225.1,161.3z"/>
					</g>
				</g>
			</g>
		</g>
	</g>
</g>
</svg>
