<?xml version="1.0" encoding="utf-8"?>
<!-- Generator: Adobe Illustrator 16.0.3, SVG Export Plug-In . SVG Version: 6.00 Build 0)  -->
<!DOCTYPE svg PUBLIC "-//W3C//DTD SVG 1.1//EN" "http://www.w3.org/Graphics/SVG/1.1/DTD/svg11.dtd">
<svg version="1.1" xmlns="http://www.w3.org/2000/svg" xmlns:xlink="http://www.w3.org/1999/xlink" x="0px" y="0px" width="195px"
	 height="105px" viewBox="0 0 195 105" enable-background="new 0 0 195 105" xml:space="preserve">
<g id="Layer_2">
	<g>
		<path fill-rule="evenodd" clip-rule="evenodd" fill-opacity="0.2471" d="M193.9,91.95l-0.45,1.649
			c-1.367,2.467-3.517,4.567-6.45,6.301c-2.866,1.733-5.667,2.6-8.4,2.6H6.45c-2.733,0-4.567-0.866-5.5-2.6
			C0.017,98.167,0.233,96.066,1.6,93.6L3.5,90.2c1.367-2.434,3.5-4.533,6.4-6.3c2.9-1.733,5.717-2.601,8.45-2.601H190.5
			c2.7,0.066,4.017,2.417,3.95,7.05C194.417,89.983,194.233,91.184,193.9,91.95z"/>
	</g>
</g>
<g id="Layer_6">
	
		<path fill-rule="evenodd" clip-rule="evenodd" fill="none" stroke="#33CC00" stroke-linecap="round" stroke-linejoin="round" stroke-miterlimit="3" d="
		M183.05,29.15L177.3,95.8 M19.5,29.15l5.7,66.65"/>
	<g>
		<g>
			<path fill-rule="evenodd" clip-rule="evenodd" fill="#30363C" d="M25.3,31.45h151.5c0.033,0.267,0.066,0.55,0.101,0.85
				c0.199,2.733-1.034,4.717-3.7,5.95H28.9c-2.667-1.233-3.9-3.217-3.7-5.95C25.233,32,25.267,31.717,25.3,31.45z"/>
			<linearGradient id="SVGID_1_" gradientUnits="userSpaceOnUse" x1="23.8848" y1="35.375" x2="178.2607" y2="35.375">
				<stop  offset="0" style="stop-color:#8E8D8D"/>
				<stop  offset="0.0431" style="stop-color:#B4AFAF"/>
				<stop  offset="0.0863" style="stop-color:#DBD9D9"/>
				<stop  offset="0.5333" style="stop-color:#DEDCDC"/>
				<stop  offset="0.9137" style="stop-color:#E8DFDF"/>
				<stop  offset="0.9569" style="stop-color:#989595"/>
				<stop  offset="1" style="stop-color:#8A8787"/>
			</linearGradient>
			<path fill-rule="evenodd" clip-rule="evenodd" fill="url(#SVGID_1_)" d="M178.1,31.45c0.067,0.533,0.117,1.05,0.15,1.55
				c0.167,4.1-1.634,6.2-5.4,6.3H29.25c-3.767-0.1-5.55-2.216-5.35-6.35c0-0.467,0.033-0.967,0.1-1.5h1.3
				c-0.033,0.267-0.066,0.55-0.1,0.85c-0.2,2.733,1.033,4.717,3.7,5.95h144.3c2.666-1.233,3.899-3.217,3.7-5.95
				c-0.034-0.3-0.067-0.583-0.101-0.85H178.1z"/>
			<linearGradient id="SVGID_2_" gradientUnits="userSpaceOnUse" x1="6.3999" y1="62" x2="191.2002" y2="62">
				<stop  offset="0" style="stop-color:#AA9B83"/>
				<stop  offset="0.0353" style="stop-color:#989696"/>
				<stop  offset="0.1176" style="stop-color:#D9D9D9"/>
				<stop  offset="0.1569" style="stop-color:#CCCCCC"/>
				<stop  offset="0.5569" style="stop-color:#CCCCCC"/>
				<stop  offset="0.8784" style="stop-color:#CCCCCC"/>
				<stop  offset="0.9216" style="stop-color:#CDCBCB"/>
				<stop  offset="0.9765" style="stop-color:#8E8E8E"/>
				<stop  offset="1" style="stop-color:#8E8A82"/>
			</linearGradient>
			<path fill-rule="evenodd" clip-rule="evenodd" fill="url(#SVGID_2_)" d="M8.7,84c0,0.046,0,0.097,0,0.15c0,0.14,0,0.307,0,0.5
				c-0.001-0.028-0.009-0.053-0.025-0.075L8.65,84.55c0-0.081,0-0.156,0-0.225c0.01-0.082,0.018-0.157,0.025-0.226
				C8.686,84.063,8.694,84.03,8.7,84z M8.7,83.6c0.2-13.433,1.6-28.733,4.2-45.899c0.867-2.367,3.317-4.45,7.35-6.25H24
				c-0.067,0.533-0.1,1.033-0.1,1.5c-0.2,4.133,1.583,6.25,5.35,6.35h143.6c3.767-0.1,5.567-2.2,5.4-6.3
				c-0.033-0.5-0.083-1.017-0.15-1.55h3.75c3.034,1.133,5.483,3.216,7.351,6.25c2.6,17.166,4.017,32.467,4.25,45.899
				c-3.367,5.134-10.467,8.101-21.3,8.9c-0.267,0.033-0.534,0.05-0.801,0.05H30.75c-0.267,0-0.533-0.017-0.8-0.05
				C19.117,91.7,12.033,88.733,8.7,83.6z M193.4,84.65c0.03-0.216,0.047-0.392,0.05-0.525c0,0.158,0,0.3,0,0.425v0.025
				C193.443,84.599,193.427,84.623,193.4,84.65z"/>
			<linearGradient id="SVGID_3_" gradientUnits="userSpaceOnUse" x1="8.2749" y1="91.4883" x2="193.6249" y2="91.4883">
				<stop  offset="0.0078" style="stop-color:#495161"/>
				<stop  offset="0.102" style="stop-color:#9F9790"/>
				<stop  offset="0.2941" style="stop-color:#495161"/>
				<stop  offset="0.4784" style="stop-color:#777B85"/>
				<stop  offset="0.7647" style="stop-color:#495161"/>
				<stop  offset="0.9098" style="stop-color:#BDB1AC"/>
				<stop  offset="1" style="stop-color:#515867"/>
			</linearGradient>
			<path fill-rule="evenodd" clip-rule="evenodd" fill="url(#SVGID_3_)" d="M193.4,84.65c0.026-0.027,0.043-0.052,0.05-0.075
				c-0.035,0.978-0.201,2.919-0.5,5.825c-1.334,3.333-4.7,5.5-10.101,6.5c-5.399,1-9.633,1.5-12.699,1.5H31.95
				c-3.067,0-7.3-0.5-12.7-1.5s-8.767-3.167-10.1-6.5c-0.271-2.907-0.43-4.849-0.475-5.825c0.016,0.022,0.024,0.047,0.025,0.075
				c3.333,5.1,10.417,8.05,21.25,8.85c0.267,0,0.533,0.017,0.8,0.05h140.6c0.267-0.033,0.534-0.05,0.801-0.05
				C182.983,92.7,190.066,89.75,193.4,84.65z"/>
			<linearGradient id="SVGID_4_" gradientUnits="userSpaceOnUse" x1="8.7002" y1="88.5742" x2="193.4502" y2="88.5742">
				<stop  offset="0" style="stop-color:#857761"/>
				<stop  offset="0.0353" style="stop-color:#777171"/>
				<stop  offset="0.1176" style="stop-color:#A19F9F"/>
				<stop  offset="0.1569" style="stop-color:#9F9999"/>
				<stop  offset="0.5569" style="stop-color:#A39D9D"/>
				<stop  offset="0.8784" style="stop-color:#A8A8A8"/>
				<stop  offset="0.9216" style="stop-color:#989393"/>
				<stop  offset="0.9765" style="stop-color:#757373"/>
				<stop  offset="1" style="stop-color:#66645F"/>
			</linearGradient>
			<path fill-rule="evenodd" clip-rule="evenodd" fill="url(#SVGID_4_)" d="M8.7,84c0-0.134,0-0.267,0-0.4
				c3.333,5.134,10.417,8.101,21.25,8.9c0.267,0.033,0.533,0.05,0.8,0.05h140.6c0.267,0,0.534-0.017,0.801-0.05
				c10.833-0.8,17.933-3.767,21.3-8.9c0,0.134,0,0.267,0,0.4v0.125c-0.003,0.134-0.02,0.31-0.05,0.525
				c-3.334,5.1-10.417,8.05-21.25,8.85c-0.267,0-0.534,0.017-0.801,0.05H30.75c-0.267-0.033-0.533-0.05-0.8-0.05
				c-10.833-0.8-17.917-3.75-21.25-8.85c0-0.193,0-0.36,0-0.5C8.7,84.097,8.7,84.046,8.7,84z"/>
		</g>
	</g>
	<g>
		<g>
			<linearGradient id="SVGID_5_" gradientUnits="userSpaceOnUse" x1="100.5996" y1="90.0254" x2="100.5996" y2="41.4754">
				<stop  offset="0.0863" style="stop-color:#ECE3E3"/>
				<stop  offset="0.5333" style="stop-color:#A39D9D"/>
				<stop  offset="0.9137" style="stop-color:#797474"/>
			</linearGradient>
			<path fill-rule="evenodd" clip-rule="evenodd" fill="url(#SVGID_5_)" d="M164.5,46.6H36.75c-2.367-0.067-4-0.083-4.9-0.05
				c-4.934,0.133-7.35,1.85-7.25,5.15c0.867,8.934,2.15,17.583,3.85,25.95c1.633,4.8,4.767,7.25,9.4,7.35c0.2,0,0.417,0,0.65,0
				h124.25c0.2,0,0.417,0,0.65,0c4.6-0.1,7.716-2.55,9.35-7.35c1.733-8.367,3.033-17.017,3.9-25.95c0.1-3.3-2.317-5.017-7.25-5.15
				C168.467,46.517,166.833,46.533,164.5,46.6z M165.7,45.05c2.467-0.066,4.184-0.1,5.149-0.1c5.2,0.2,7.75,2.083,7.65,5.65
				c-0.9,9.633-2.267,18.966-4.1,28c-1.7,5.2-4.983,7.851-9.851,7.95c-0.233,0-0.467,0-0.7,0H37.4c-0.267,0-0.5,0-0.7,0
				c-4.867-0.1-8.167-2.75-9.9-7.95c-1.8-9.033-3.167-18.366-4.1-28c-0.1-3.567,2.45-5.45,7.65-5.65c0.967,0,2.683,0.033,5.15,0.1
				H165.7z"/>
			
				<linearGradient id="SVGID_6_" gradientUnits="userSpaceOnUse" x1="20.812" y1="92.3193" x2="148.6407" y2="92.3193" gradientTransform="matrix(0.9524 -0.3047 0.2202 0.9795 1.140833e-004 3.480911e-005)">
				<stop  offset="0.0863" style="stop-color:#33404F"/>
				<stop  offset="0.5333" style="stop-color:#5D6C7E"/>
				<stop  offset="0.9137" style="stop-color:#3B4C5F"/>
			</linearGradient>
			<path fill-rule="evenodd" clip-rule="evenodd" fill="url(#SVGID_6_)" d="M164.5,46.6c2.333-0.067,3.967-0.083,4.9-0.05
				c4.933,0.133,7.35,1.85,7.25,5.15c-0.867,8.934-2.167,17.583-3.9,25.95c-1.634,4.8-4.75,7.25-9.35,7.35c-0.233,0-0.45,0-0.65,0
				H38.5c-0.233,0-0.45,0-0.65,0c-4.633-0.1-7.767-2.55-9.4-7.35c-1.7-8.367-2.983-17.017-3.85-25.95
				c-0.1-3.3,2.316-5.017,7.25-5.15c0.9-0.033,2.533-0.017,4.9,0.05H164.5z"/>
		</g>
	</g>
	<g>
		<g>
			<linearGradient id="SVGID_7_" gradientUnits="userSpaceOnUse" x1="98.0996" y1="75.0625" x2="98.0996" y2="55.2375">
				<stop  offset="0.0863" style="stop-color:#6B798A"/>
				<stop  offset="0.1843" style="stop-color:#5D6C7E"/>
				<stop  offset="0.9137" style="stop-color:#242F3C"/>
			</linearGradient>
			<path fill-rule="evenodd" clip-rule="evenodd" fill="url(#SVGID_7_)" d="M135.4,72.6V57.7c-0.2-1.601-0.834-2.601-1.9-3H63.05
				c-1.066,0.399-1.7,1.399-1.9,3V72.6c0.2,1.634,0.833,2.667,1.9,3.101h70.45C134.566,75.267,135.2,74.233,135.4,72.6z M136.3,56.5
				v17.2c-0.166,1.833-0.8,3-1.899,3.5H61.85c-1.1-0.5-1.75-1.667-1.95-3.5V56.5c0.2-1.833,0.85-2.983,1.95-3.45h72.55
				C135.5,53.517,136.134,54.667,136.3,56.5z"/>
			<linearGradient id="SVGID_8_" gradientUnits="userSpaceOnUse" x1="61.1499" y1="65.2002" x2="135.4004" y2="65.2002">
				<stop  offset="0" style="stop-color:#98DDE0"/>
				<stop  offset="0.7333" style="stop-color:#85CCD0"/>
				<stop  offset="1" style="stop-color:#33B8BF"/>
			</linearGradient>
			<path fill-rule="evenodd" clip-rule="evenodd" fill="url(#SVGID_8_)" d="M135.4,72.6c-0.2,1.634-0.834,2.667-1.9,3.101H63.05
				c-1.066-0.434-1.7-1.467-1.9-3.101V57.7c0.2-1.601,0.833-2.601,1.9-3h70.45c1.066,0.399,1.7,1.399,1.9,3V72.6z"/>
		</g>
	</g>
	<g>
		<g>
			<linearGradient id="SVGID_9_" gradientUnits="userSpaceOnUse" x1="21.5498" y1="14.625" x2="196.1498" y2="14.625">
				<stop  offset="0.0431" style="stop-color:#8A9398"/>
				<stop  offset="0.2824" style="stop-color:#7A8891"/>
				<stop  offset="0.5647" style="stop-color:#8DA2AD"/>
				<stop  offset="0.8392" style="stop-color:#B9C1C8"/>
				<stop  offset="1" style="stop-color:#AEBAC0"/>
			</linearGradient>
			<path fill-rule="evenodd" clip-rule="evenodd" fill="url(#SVGID_9_)" d="M182.75,23.15c-0.033,0.033-0.066,0.05-0.1,0.05
				c-0.367,0.167-0.784,0.3-1.25,0.4H20.65h-0.1c-0.667,0-1.216-0.05-1.65-0.15c-0.6-0.167-0.95-0.467-1.05-0.9
				c-0.033-0.1-0.033-0.216,0-0.35c0-0.1,0.017-0.217,0.05-0.35l6.95-14.9c0.6-0.8,1.583-1.217,2.95-1.25h145.4
				c0.399-0.067,0.767-0.067,1.1,0c0.9,0.066,1.533,0.383,1.9,0.95l7.6,15.05C183.733,22.3,183.384,22.783,182.75,23.15z"/>
			<linearGradient id="SVGID_10_" gradientUnits="userSpaceOnUse" x1="7.9624" y1="27.251" x2="187.9374" y2="27.251">
				<stop  offset="0.0078" style="stop-color:#625A54"/>
				<stop  offset="0.0824" style="stop-color:#8A847F"/>
				<stop  offset="0.2" style="stop-color:#5F5E5D"/>
				<stop  offset="0.4078" style="stop-color:#606466"/>
				<stop  offset="0.8549" style="stop-color:#4E5356"/>
				<stop  offset="0.9529" style="stop-color:#A89891"/>
				<stop  offset="1" style="stop-color:#87756D"/>
			</linearGradient>
			<path fill-rule="evenodd" clip-rule="evenodd" fill="url(#SVGID_10_)" d="M20.65,23.6c0.033,0.233,0.067,0.45,0.1,0.65h-0.7
				c0.167,2.233,1.167,3.55,3,3.95H179.1c1.9-1.233,3-2.55,3.301-3.95l0.35-1.1c0.634-0.367,0.983-0.85,1.05-1.45v9.2
				c-0.033,0.367-0.184,0.7-0.45,1c-0.399,0.434-1.05,0.733-1.949,0.9H20.55c-1.667,0.034-2.566-0.333-2.7-1.1
				c-0.033-0.167-0.033-0.317,0-0.45v-8.7c0.1,0.434,0.45,0.733,1.05,0.9c0.434,0.1,0.983,0.15,1.65,0.15H20.65z"/>
			<linearGradient id="SVGID_11_" gradientUnits="userSpaceOnUse" x1="7.9624" y1="25.6748" x2="187.9374" y2="25.6748">
				<stop  offset="0.0078" style="stop-color:#625A54"/>
				<stop  offset="0.0824" style="stop-color:#9F9790"/>
				<stop  offset="0.2" style="stop-color:#746F6A"/>
				<stop  offset="0.4078" style="stop-color:#6C7274"/>
				<stop  offset="0.8549" style="stop-color:#65696B"/>
				<stop  offset="0.9529" style="stop-color:#BDB1AC"/>
				<stop  offset="1" style="stop-color:#87756D"/>
			</linearGradient>
			<path fill-rule="evenodd" clip-rule="evenodd" fill="url(#SVGID_11_)" d="M20.75,24.25c0.3,1.767,1.267,2.817,2.9,3.15h154.5
				c1.566-0.967,2.583-2.017,3.05-3.15c0.1-0.2,0.166-0.417,0.2-0.65c0.466-0.1,0.883-0.233,1.25-0.4c0.033,0,0.066-0.017,0.1-0.05
				l-0.35,1.1c-0.301,1.4-1.4,2.717-3.301,3.95H23.05c-1.833-0.4-2.833-1.717-3-3.95H20.75z"/>
			<linearGradient id="SVGID_12_" gradientUnits="userSpaceOnUse" x1="20.6499" y1="25.5" x2="181.4004" y2="25.5">
				<stop  offset="0.0431" style="stop-color:#4B575D"/>
				<stop  offset="0.2824" style="stop-color:#2A3033"/>
				<stop  offset="0.5647" style="stop-color:#283033"/>
				<stop  offset="0.8392" style="stop-color:#383E43"/>
				<stop  offset="1" style="stop-color:#636E72"/>
			</linearGradient>
			<path fill-rule="evenodd" clip-rule="evenodd" fill="url(#SVGID_12_)" d="M20.75,24.25c-0.033-0.2-0.067-0.417-0.1-0.65H181.4
				c-0.034,0.233-0.101,0.45-0.2,0.65c-0.467,1.133-1.483,2.183-3.05,3.15H23.65C22.017,27.067,21.05,26.017,20.75,24.25z"/>
		</g>
	</g>
	<g>
		<g>
			<linearGradient id="SVGID_13_" gradientUnits="userSpaceOnUse" x1="58.1499" y1="14.9502" x2="144.6504" y2="14.9502">
				<stop  offset="0.051" style="stop-color:#514D4D"/>
				<stop  offset="0.1333" style="stop-color:#747372"/>
				<stop  offset="0.2471" style="stop-color:#484443"/>
				<stop  offset="0.502" style="stop-color:#AAA9A9"/>
				<stop  offset="0.7216" style="stop-color:#413E3B"/>
				<stop  offset="0.9137" style="stop-color:#666360"/>
			</linearGradient>
			<path fill-rule="evenodd" clip-rule="evenodd" fill="url(#SVGID_13_)" d="M58.15,11.7c1.1,1.3,5.233,2.417,12.4,3.35
				c8.5,1.1,18.784,1.65,30.851,1.65c12.033,0,22.3-0.55,30.8-1.65c7.133-0.933,11.283-2.05,12.45-3.35v1.5
				c-1.134,1.267-5.284,2.367-12.45,3.3c-8.5,1.133-18.767,1.7-30.8,1.7c-12.067,0-22.351-0.567-30.851-1.7
				c-7.167-0.933-11.3-2.033-12.4-3.3V11.7z"/>
			<linearGradient id="SVGID_14_" gradientUnits="userSpaceOnUse" x1="68.5" y1="8.5249" x2="134.2998" y2="8.5249">
				<stop  offset="0.051" style="stop-color:#514D4D"/>
				<stop  offset="0.1333" style="stop-color:#747372"/>
				<stop  offset="0.2471" style="stop-color:#484443"/>
				<stop  offset="0.502" style="stop-color:#AAA9A9"/>
				<stop  offset="0.7216" style="stop-color:#413E3B"/>
				<stop  offset="0.9137" style="stop-color:#666360"/>
			</linearGradient>
			<path fill-rule="evenodd" clip-rule="evenodd" fill="url(#SVGID_14_)" d="M134.3,6.1V7c0,0.033,0,0.1,0,0.2l-0.05,0.05
				c-0.167,0.4-0.833,0.8-2,1.2c-1.6,0.5-4.134,0.966-7.6,1.4c-6.4,0.8-14.15,1.2-23.25,1.2c-9.101,0-16.867-0.4-23.3-1.2
				c-3.467-0.434-6-0.917-7.6-1.45c-1.133-0.367-1.783-0.75-1.95-1.15C68.517,7.15,68.5,7.067,68.5,7V6
				c0.002,0.136,0.086,0.286,0.25,0.45c0.2,0.233,0.517,0.433,0.95,0.6c0.8,0.367,2.017,0.7,3.65,1
				c1.333,0.267,2.917,0.517,4.75,0.75c6.433,0.8,14.2,1.2,23.3,1.2c9.1,0,16.85-0.4,23.25-1.2c1.866-0.233,3.466-0.483,4.8-0.75
				c1.6-0.3,2.816-0.633,3.649-1c0.434-0.167,0.75-0.367,0.95-0.6C134.15,6.35,134.233,6.233,134.3,6.1z"/>
			<linearGradient id="SVGID_15_" gradientUnits="userSpaceOnUse" x1="48.2627" y1="5.9502" x2="154.5377" y2="5.9502">
				<stop  offset="0.051" style="stop-color:#7B7B7B"/>
				<stop  offset="0.1333" style="stop-color:#A19F9E"/>
				<stop  offset="0.2471" style="stop-color:#807C7B"/>
				<stop  offset="0.502" style="stop-color:#EDE9E6"/>
				<stop  offset="0.7216" style="stop-color:#838383"/>
				<stop  offset="0.9137" style="stop-color:#A09993"/>
			</linearGradient>
			<path fill-rule="evenodd" clip-rule="evenodd" fill="url(#SVGID_15_)" d="M134.3,6v0.1c-0.066,0.133-0.149,0.25-0.25,0.35
				c-0.2,0.233-0.517,0.433-0.95,0.6c-0.833,0.367-2.05,0.7-3.649,1c-1.334,0.267-2.934,0.517-4.8,0.75
				c-6.4,0.8-14.15,1.2-23.25,1.2C92.3,10,84.533,9.6,78.1,8.8c-1.833-0.233-3.417-0.483-4.75-0.75c-1.633-0.3-2.85-0.633-3.65-1
				c-0.434-0.167-0.75-0.367-0.95-0.6C68.586,6.286,68.502,6.136,68.5,6V5.9c0.033-1.1,3.233-2.05,9.6-2.85
				c6.433-0.767,14.2-1.15,23.3-1.15c9.1,0,16.85,0.383,23.25,1.15c6.233,0.767,9.449,1.684,9.649,2.75V6z"/>
			<linearGradient id="SVGID_16_" gradientUnits="userSpaceOnUse" x1="64.2002" y1="9.375" x2="138.5498" y2="9.375">
				<stop  offset="0.1333" style="stop-color:#B8B2B2"/>
				<stop  offset="0.502" style="stop-color:#D4D2D2"/>
				<stop  offset="0.9137" style="stop-color:#9F9C9A"/>
			</linearGradient>
			<path fill-rule="evenodd" clip-rule="evenodd" fill="url(#SVGID_16_)" d="M138.35,7.6c0.101,0.1,0.167,0.233,0.2,0.4
				c0,0.033,0,0.083,0,0.15c0,0.367-0.333,0.733-1,1.1c-1.5,0.8-4.783,1.517-9.85,2.15c-7.267,0.9-16.033,1.35-26.3,1.35
				c-10.3,0-19.067-0.45-26.3-1.35c-5.067-0.633-8.367-1.35-9.9-2.15c-0.667-0.367-1-0.733-1-1.1c0-0.066,0.017-0.133,0.05-0.2
				c0.033-0.133,0.133-0.267,0.3-0.4V7.5c0.567-0.533,1.883-1.033,3.95-1.5v1c0,0.067,0.017,0.15,0.05,0.25
				c0.167,0.4,0.817,0.783,1.95,1.15c1.6,0.533,4.133,1.017,7.6,1.45c6.433,0.8,14.2,1.2,23.3,1.2c9.1,0,16.85-0.4,23.25-1.2
				c3.466-0.434,6-0.9,7.6-1.4c1.167-0.4,1.833-0.8,2-1.2l0.05-0.05c0-0.1,0-0.167,0-0.2V6.1V6
				C136.467,6.5,137.816,7.033,138.35,7.6z"/>
			<linearGradient id="SVGID_17_" gradientUnits="userSpaceOnUse" x1="58.1499" y1="12.125" x2="144.6504" y2="12.125">
				<stop  offset="0.051" style="stop-color:#7B7B7B"/>
				<stop  offset="0.1333" style="stop-color:#A19F9E"/>
				<stop  offset="0.2471" style="stop-color:#6A605E"/>
				<stop  offset="0.502" style="stop-color:#D7D4D3"/>
				<stop  offset="0.7216" style="stop-color:#5C5753"/>
				<stop  offset="0.9137" style="stop-color:#A09993"/>
			</linearGradient>
			<path fill-rule="evenodd" clip-rule="evenodd" fill="url(#SVGID_17_)" d="M144.65,11.7c-1.167,1.3-5.317,2.417-12.45,3.35
				c-8.5,1.1-18.767,1.65-30.8,1.65c-12.067,0-22.351-0.55-30.851-1.65c-7.167-0.933-11.3-2.05-12.4-3.35l6.4-4.15
				c-0.167,0.133-0.267,0.267-0.3,0.4c-0.033,0.066-0.05,0.133-0.05,0.2c0,0.367,0.333,0.733,1,1.1c1.533,0.8,4.833,1.517,9.9,2.15
				c7.233,0.9,16,1.35,26.3,1.35c10.267,0,19.033-0.45,26.3-1.35c5.066-0.633,8.35-1.35,9.85-2.15c0.667-0.367,1-0.733,1-1.1
				c0-0.066,0-0.117,0-0.15c-0.033-0.167-0.1-0.3-0.2-0.4L144.65,11.7z"/>
		</g>
	</g>
</g>
<g id="ELECTRONIC_BALANCE_CHANGE">
	
		<path fill-rule="evenodd" clip-rule="evenodd" fill="none" stroke="#33CC00" stroke-linecap="round" stroke-linejoin="round" stroke-miterlimit="3" d="
		M183.05,28.65L177.3,95.3 M19.5,28.65l5.7,66.65"/>
	<g>
		<g>
			<path fill-rule="evenodd" clip-rule="evenodd" fill="#30363C" d="M25.3,30.95h151.5c0.033,0.267,0.066,0.55,0.101,0.85
				c0.199,2.733-1.034,4.717-3.7,5.95H28.9c-2.667-1.233-3.9-3.217-3.7-5.95C25.233,31.5,25.267,31.217,25.3,30.95z"/>
			<linearGradient id="SVGID_18_" gradientUnits="userSpaceOnUse" x1="6.3999" y1="61.5" x2="191.2002" y2="61.5">
				<stop  offset="0" style="stop-color:#AA9B83"/>
				<stop  offset="0.0353" style="stop-color:#989696"/>
				<stop  offset="0.1176" style="stop-color:#D9D9D9"/>
				<stop  offset="0.1569" style="stop-color:#CCCCCC"/>
				<stop  offset="0.5569" style="stop-color:#CCCCCC"/>
				<stop  offset="0.8784" style="stop-color:#CCCCCC"/>
				<stop  offset="0.9216" style="stop-color:#CDCBCB"/>
				<stop  offset="0.9765" style="stop-color:#8E8E8E"/>
				<stop  offset="1" style="stop-color:#8E8A82"/>
			</linearGradient>
			<path fill-rule="evenodd" clip-rule="evenodd" fill="url(#SVGID_18_)" d="M8.7,83.1c0.2-13.433,1.6-28.733,4.2-45.899
				c0.867-2.367,3.317-4.45,7.35-6.25H24c-0.067,0.533-0.1,1.033-0.1,1.5c-0.2,4.133,1.583,6.25,5.35,6.35h143.6
				c3.767-0.1,5.567-2.2,5.4-6.3c-0.033-0.5-0.083-1.017-0.15-1.55h3.75c3.034,1.133,5.483,3.216,7.351,6.25
				c2.6,17.166,4.017,32.467,4.25,45.899c-3.367,5.134-10.467,8.101-21.3,8.9c-0.267,0.033-0.534,0.05-0.801,0.05H30.75
				c-0.267,0-0.533-0.017-0.8-0.05C19.117,91.2,12.033,88.233,8.7,83.1z M8.65,84.05c0-0.2,0.017-0.383,0.05-0.55
				c0,0.166,0,0.383,0,0.65C8.699,84.115,8.682,84.082,8.65,84.05z M193.4,84.15c0.028-0.229,0.045-0.421,0.05-0.575
				c0,0.171,0,0.329,0,0.475C193.45,84.083,193.434,84.116,193.4,84.15z"/>
			<linearGradient id="SVGID_19_" gradientUnits="userSpaceOnUse" x1="23.8848" y1="34.875" x2="178.2607" y2="34.875">
				<stop  offset="0" style="stop-color:#8E8D8D"/>
				<stop  offset="0.0431" style="stop-color:#B4AFAF"/>
				<stop  offset="0.0863" style="stop-color:#DBD9D9"/>
				<stop  offset="0.5333" style="stop-color:#DEDCDC"/>
				<stop  offset="0.9137" style="stop-color:#E8DFDF"/>
				<stop  offset="0.9569" style="stop-color:#989595"/>
				<stop  offset="1" style="stop-color:#8A8787"/>
			</linearGradient>
			<path fill-rule="evenodd" clip-rule="evenodd" fill="url(#SVGID_19_)" d="M178.1,30.95c0.067,0.533,0.117,1.05,0.15,1.55
				c0.167,4.1-1.634,6.2-5.4,6.3H29.25c-3.767-0.1-5.55-2.216-5.35-6.35c0-0.467,0.033-0.967,0.1-1.5h1.3
				c-0.033,0.267-0.066,0.55-0.1,0.85c-0.2,2.733,1.033,4.717,3.7,5.95h144.3c2.666-1.233,3.899-3.217,3.7-5.95
				c-0.034-0.3-0.067-0.583-0.101-0.85H178.1z"/>
			<linearGradient id="SVGID_20_" gradientUnits="userSpaceOnUse" x1="8.2749" y1="91.2246" x2="193.6249" y2="91.2246">
				<stop  offset="0.0078" style="stop-color:#495161"/>
				<stop  offset="0.102" style="stop-color:#9F9790"/>
				<stop  offset="0.2941" style="stop-color:#495161"/>
				<stop  offset="0.4784" style="stop-color:#777B85"/>
				<stop  offset="0.7647" style="stop-color:#495161"/>
				<stop  offset="0.9098" style="stop-color:#BDB1AC"/>
				<stop  offset="1" style="stop-color:#515867"/>
			</linearGradient>
			<path fill-rule="evenodd" clip-rule="evenodd" fill="url(#SVGID_20_)" d="M193.4,84.15c0.033-0.034,0.05-0.067,0.05-0.101
				c0.033,0.667-0.134,2.783-0.5,6.351c-1.334,3.333-4.7,5.5-10.101,6.5c-5.399,1-9.633,1.5-12.699,1.5H31.95
				c-3.067,0-7.3-0.5-12.7-1.5s-8.767-3.167-10.1-6.5c-0.333-3.567-0.5-5.684-0.5-6.351c0.032,0.032,0.049,0.065,0.05,0.101
				c3.333,5.1,10.417,8.05,21.25,8.85c0.267,0,0.533,0.017,0.8,0.05h140.6c0.267-0.033,0.534-0.05,0.801-0.05
				C182.983,92.2,190.066,89.25,193.4,84.15z"/>
			<linearGradient id="SVGID_21_" gradientUnits="userSpaceOnUse" x1="8.7002" y1="88.0742" x2="193.4502" y2="88.0742">
				<stop  offset="0" style="stop-color:#857761"/>
				<stop  offset="0.0353" style="stop-color:#777171"/>
				<stop  offset="0.1176" style="stop-color:#A19F9F"/>
				<stop  offset="0.1569" style="stop-color:#9F9999"/>
				<stop  offset="0.5569" style="stop-color:#A39D9D"/>
				<stop  offset="0.8784" style="stop-color:#A8A8A8"/>
				<stop  offset="0.9216" style="stop-color:#989393"/>
				<stop  offset="0.9765" style="stop-color:#757373"/>
				<stop  offset="1" style="stop-color:#66645F"/>
			</linearGradient>
			<path fill-rule="evenodd" clip-rule="evenodd" fill="url(#SVGID_21_)" d="M8.7,83.5c0-0.134,0-0.267,0-0.4
				c3.333,5.134,10.417,8.101,21.25,8.9c0.267,0.033,0.533,0.05,0.8,0.05h140.6c0.267,0,0.534-0.017,0.801-0.05
				c10.833-0.8,17.933-3.767,21.3-8.9c0,0.134,0,0.267,0,0.4v0.075c-0.005,0.154-0.021,0.346-0.05,0.575
				c-3.334,5.1-10.417,8.05-21.25,8.85c-0.267,0-0.534,0.017-0.801,0.05H30.75c-0.267-0.033-0.533-0.05-0.8-0.05
				c-10.833-0.8-17.917-3.75-21.25-8.85C8.7,83.883,8.7,83.666,8.7,83.5z"/>
		</g>
	</g>
	<g>
		<g>
			
				<linearGradient id="SVGID_22_" gradientUnits="userSpaceOnUse" x1="-302.3682" y1="60.9336" x2="273.7303" y2="60.9336" gradientTransform="matrix(0.2113 -0.0676 0.0488 0.2174 101.0498 49.9001)">
				<stop  offset="0.0863" style="stop-color:#33404F"/>
				<stop  offset="0.5333" style="stop-color:#5D6C7E"/>
				<stop  offset="0.9137" style="stop-color:#3B4C5F"/>
			</linearGradient>
			<path fill-rule="evenodd" clip-rule="evenodd" fill="url(#SVGID_22_)" d="M164.478,46.083c2.353-0.067,3.987-0.085,4.904-0.056
				c4.94,0.163,7.355,1.894,7.245,5.192c-0.865,8.935-2.16,17.582-3.884,25.939c-1.627,4.808-4.748,7.249-9.363,7.322
				c-0.215,0-0.43,0-0.644,0H38.487c-0.214,0-0.433,0-0.654,0c-4.608-0.073-7.729-2.515-9.364-7.322
				c-1.716-8.357-3.01-17.004-3.883-25.939c-0.104-3.299,2.315-5.03,7.256-5.192c0.917-0.03,2.548-0.011,4.893,0.056H164.478z"/>
			
				<linearGradient id="SVGID_23_" gradientUnits="userSpaceOnUse" x1="-1.9741" y1="178.5879" x2="-1.9741" y2="-40.1871" gradientTransform="matrix(0.2219 0 0 0.2219 101.0496 49.9001)">
				<stop  offset="0.0863" style="stop-color:#ECE3E3"/>
				<stop  offset="0.5333" style="stop-color:#A39D9D"/>
				<stop  offset="0.9137" style="stop-color:#797474"/>
			</linearGradient>
			<path fill-rule="evenodd" clip-rule="evenodd" fill="url(#SVGID_23_)" d="M164.478,46.083H36.734
				c-2.345-0.067-3.976-0.085-4.893-0.056c-4.941,0.163-7.359,1.894-7.256,5.192c0.873,8.935,2.167,17.582,3.883,25.939
				c1.635,4.808,4.756,7.249,9.364,7.322c0.222,0,0.44,0,0.654,0h124.25c0.214,0,0.429,0,0.644,0
				c4.615-0.073,7.736-2.515,9.363-7.322c1.724-8.357,3.019-17.004,3.884-25.939c0.11-3.299-2.305-5.03-7.245-5.192
				C168.465,45.998,166.83,46.017,164.478,46.083z M165.71,44.53c2.47-0.067,4.189-0.085,5.158-0.056
				c5.2,0.185,7.748,2.056,7.645,5.614c-0.917,9.653-2.282,18.998-4.094,28.037c-1.724,5.192-5.015,7.829-9.874,7.91
				c-0.229,0-0.467,0-0.71,0H37.377c-0.237,0-0.47,0-0.699,0c-4.867-0.081-8.158-2.718-9.875-7.91
				c-1.812-9.039-3.177-18.384-4.094-28.037c-0.111-3.558,2.437-5.429,7.644-5.614c0.961-0.03,2.681-0.011,5.159,0.056H165.71z"/>
		</g>
	</g>
	<g>
		<g>
			
				<linearGradient id="SVGID_24_" gradientUnits="userSpaceOnUse" x1="-13.2241" y1="111.0879" x2="-13.2241" y2="21.7129" gradientTransform="matrix(0.2219 0 0 0.2219 101.0496 49.9001)">
				<stop  offset="0.0863" style="stop-color:#6B798A"/>
				<stop  offset="0.1843" style="stop-color:#5D6C7E"/>
				<stop  offset="0.9137" style="stop-color:#242F3C"/>
			</linearGradient>
			<path fill-rule="evenodd" clip-rule="evenodd" fill="url(#SVGID_24_)" d="M135.388,57.223c-0.185-1.612-0.813-2.618-1.886-3.018
				H63.073c-1.087,0.399-1.727,1.405-1.919,3.018v14.9c0.192,1.619,0.832,2.644,1.919,3.072h70.429
				c1.072-0.429,1.701-1.453,1.886-3.072V57.223z M134.378,52.529c1.103,0.481,1.749,1.639,1.941,3.473v17.219
				c-0.192,1.834-0.839,2.999-1.941,3.495H61.863c-1.102-0.496-1.753-1.661-1.953-3.495V56.002c0.2-1.834,0.851-2.992,1.953-3.473
				H134.378z"/>
			
				<linearGradient id="SVGID_25_" gradientUnits="userSpaceOnUse" x1="-179.7993" y1="66.6992" x2="154.751" y2="66.6992" gradientTransform="matrix(0.2219 0 0 0.2219 101.0496 49.9001)">
				<stop  offset="0" style="stop-color:#98DDE0"/>
				<stop  offset="0.7333" style="stop-color:#85CCD0"/>
				<stop  offset="1" style="stop-color:#33B8BF"/>
			</linearGradient>
			<path fill-rule="evenodd" clip-rule="evenodd" fill="url(#SVGID_25_)" d="M135.388,57.223v14.9
				c-0.185,1.619-0.813,2.644-1.886,3.072H63.073c-1.087-0.429-1.727-1.453-1.919-3.072v-14.9c0.192-1.612,0.832-2.618,1.919-3.018
				h70.429C134.574,54.604,135.203,55.61,135.388,57.223z"/>
		</g>
	</g>
	<g>
		<g>
			
				<linearGradient id="SVGID_26_" gradientUnits="userSpaceOnUse" x1="-358.25" y1="-161.1895" x2="428.65" y2="-161.1895" gradientTransform="matrix(0.2219 0 0 0.2219 101.0496 49.9001)">
				<stop  offset="0.0431" style="stop-color:#8A9398"/>
				<stop  offset="0.2824" style="stop-color:#7A8891"/>
				<stop  offset="0.5647" style="stop-color:#8DA2AD"/>
				<stop  offset="0.8392" style="stop-color:#B9C1C8"/>
				<stop  offset="1" style="stop-color:#AEBAC0"/>
			</linearGradient>
			<path fill-rule="evenodd" clip-rule="evenodd" fill="url(#SVGID_26_)" d="M17.862,22.052c-0.029-0.111-0.037-0.229-0.022-0.355
				c0-0.111,0.022-0.229,0.066-0.355l6.945-14.878c0.584-0.799,1.564-1.228,2.94-1.287h145.429c0.392-0.037,0.751-0.037,1.076,0
				c0.895,0.074,1.531,0.403,1.908,0.987l7.577,15.022c-0.059,0.621-0.41,1.113-1.054,1.476c-0.029,0.015-0.056,0.029-0.077,0.044
				c-0.355,0.163-0.77,0.299-1.243,0.41H20.658h-0.111c-0.673,0-1.217-0.055-1.631-0.167C18.31,22.773,17.958,22.474,17.862,22.052z
				"/>
			
				<linearGradient id="SVGID_27_" gradientUnits="userSpaceOnUse" x1="-419.5498" y1="-111.4004" x2="391.5502" y2="-111.4004" gradientTransform="matrix(0.2219 0 0 0.2219 101.0496 49.9001)">
				<stop  offset="0.0078" style="stop-color:#625A54"/>
				<stop  offset="0.0824" style="stop-color:#9F9790"/>
				<stop  offset="0.2" style="stop-color:#746F6A"/>
				<stop  offset="0.4078" style="stop-color:#6C7274"/>
				<stop  offset="0.8549" style="stop-color:#65696B"/>
				<stop  offset="0.9529" style="stop-color:#BDB1AC"/>
				<stop  offset="1" style="stop-color:#87756D"/>
			</linearGradient>
			<path fill-rule="evenodd" clip-rule="evenodd" fill="url(#SVGID_27_)" d="M181.408,23.117c0.474-0.111,0.888-0.248,1.243-0.41
				c0.021-0.015,0.048-0.03,0.077-0.044l-0.311,1.109c-0.296,1.398-1.395,2.707-3.295,3.928H23.065
				c-1.849-0.407-2.862-1.716-3.04-3.928h0.71c0.326,1.738,1.298,2.781,2.918,3.129h154.505c1.567-0.977,2.581-2.02,3.039-3.129
				C181.294,23.565,181.364,23.347,181.408,23.117z"/>
			
				<linearGradient id="SVGID_28_" gradientUnits="userSpaceOnUse" x1="-362.2993" y1="-112.1763" x2="362.1504" y2="-112.1763" gradientTransform="matrix(0.2219 0 0 0.2219 101.0496 49.9001)">
				<stop  offset="0.0431" style="stop-color:#4B575D"/>
				<stop  offset="0.2824" style="stop-color:#2A3033"/>
				<stop  offset="0.5647" style="stop-color:#283033"/>
				<stop  offset="0.8392" style="stop-color:#383E43"/>
				<stop  offset="1" style="stop-color:#636E72"/>
			</linearGradient>
			<path fill-rule="evenodd" clip-rule="evenodd" fill="url(#SVGID_28_)" d="M20.735,23.772c-0.037-0.207-0.063-0.425-0.078-0.655
				h160.75c-0.044,0.229-0.114,0.448-0.211,0.655c-0.458,1.109-1.472,2.152-3.039,3.129H23.653
				C22.034,26.553,21.061,25.51,20.735,23.772z"/>
			
				<linearGradient id="SVGID_29_" gradientUnits="userSpaceOnUse" x1="-419.5498" y1="-104.3252" x2="391.5502" y2="-104.3252" gradientTransform="matrix(0.2219 0 0 0.2219 101.0496 49.9001)">
				<stop  offset="0.0078" style="stop-color:#625A54"/>
				<stop  offset="0.0824" style="stop-color:#8A847F"/>
				<stop  offset="0.2" style="stop-color:#5F5E5D"/>
				<stop  offset="0.4078" style="stop-color:#606466"/>
				<stop  offset="0.8549" style="stop-color:#4E5356"/>
				<stop  offset="0.9529" style="stop-color:#A89891"/>
				<stop  offset="1" style="stop-color:#87756D"/>
			</linearGradient>
			<path fill-rule="evenodd" clip-rule="evenodd" fill="url(#SVGID_29_)" d="M183.782,21.187v9.197
				c-0.029,0.392-0.177,0.736-0.443,1.032c-0.407,0.407-1.058,0.707-1.952,0.899H20.547c-1.649,0.015-2.544-0.362-2.685-1.132
				c-0.029-0.141-0.029-0.289,0-0.444v-8.687c0.096,0.421,0.448,0.721,1.054,0.898c0.414,0.111,0.958,0.167,1.631,0.167h0.111
				c0.015,0.229,0.041,0.448,0.078,0.655h-0.71c0.178,2.211,1.191,3.521,3.04,3.928h156.058c1.9-1.221,2.999-2.53,3.295-3.928
				l0.311-1.109C183.372,22.3,183.724,21.808,183.782,21.187z"/>
		</g>
	</g>
	<g>
		<g>
			
				<linearGradient id="SVGID_30_" gradientUnits="userSpaceOnUse" x1="-237.9751" y1="-200.4019" x2="240.9749" y2="-200.4019" gradientTransform="matrix(0.2219 0 0 0.2219 101.0496 49.9001)">
				<stop  offset="0.051" style="stop-color:#7B7B7B"/>
				<stop  offset="0.1333" style="stop-color:#A19F9E"/>
				<stop  offset="0.2471" style="stop-color:#807C7B"/>
				<stop  offset="0.502" style="stop-color:#EDE9E6"/>
				<stop  offset="0.7216" style="stop-color:#838383"/>
				<stop  offset="0.9137" style="stop-color:#A09993"/>
			</linearGradient>
			<path fill-rule="evenodd" clip-rule="evenodd" fill="url(#SVGID_30_)" d="M134.278,5.621c-0.044,0.111-0.122,0.222-0.233,0.333
				c-0.199,0.214-0.514,0.418-0.942,0.61c-0.829,0.348-2.053,0.684-3.673,1.01c-1.331,0.251-2.921,0.488-4.771,0.71
				c-6.42,0.799-14.172,1.198-23.254,1.198c-9.105,0-16.868-0.399-23.288-1.198c-1.849-0.222-3.432-0.458-4.749-0.71
				c-1.635-0.326-2.859-0.662-3.672-1.01c-0.444-0.192-0.766-0.396-0.965-0.61c-0.141-0.155-0.218-0.307-0.233-0.455
				c0-0.015,0-0.037,0-0.066V5.41c0.029-1.102,3.236-2.052,9.619-2.851c6.42-0.784,14.183-1.176,23.288-1.176
				c9.082,0,16.834,0.392,23.254,1.176c6.213,0.769,9.423,1.69,9.63,2.763L134.278,5.621z"/>
			
				<linearGradient id="SVGID_31_" gradientUnits="userSpaceOnUse" x1="-166.0483" y1="-184.9268" x2="169.1025" y2="-184.9268" gradientTransform="matrix(0.2219 0 0 0.2219 101.0496 49.9001)">
				<stop  offset="0.1333" style="stop-color:#B8B2B2"/>
				<stop  offset="0.502" style="stop-color:#D4D2D2"/>
				<stop  offset="0.9137" style="stop-color:#9F9C9A"/>
			</linearGradient>
			<path fill-rule="evenodd" clip-rule="evenodd" fill="url(#SVGID_31_)" d="M138.35,7.108c0.111,0.111,0.178,0.237,0.2,0.377
				c0.015,0.059,0.022,0.115,0.022,0.167c0,0.377-0.333,0.751-0.999,1.121c-1.531,0.784-4.826,1.49-9.885,2.119
				c-7.264,0.895-16.032,1.342-26.306,1.342c-10.281,0-19.046-0.447-26.294-1.342c-5.059-0.629-8.354-1.343-9.885-2.142
				c-0.666-0.354-0.999-0.721-0.999-1.098c0-0.052,0.007-0.115,0.022-0.188c0.052-0.148,0.155-0.292,0.311-0.433V7.008
				c0.57-0.533,1.89-1.036,3.961-1.509v0.999c0,0.074,0.015,0.152,0.044,0.233c0.185,0.422,0.843,0.813,1.975,1.176
				c1.598,0.532,4.131,1.009,7.6,1.431c6.42,0.799,14.183,1.198,23.288,1.198c9.082,0,16.834-0.399,23.254-1.198
				c3.469-0.422,6.002-0.892,7.6-1.409c1.146-0.377,1.813-0.776,1.997-1.198c0.015-0.029,0.022-0.048,0.022-0.055
				c0.008-0.074,0.011-0.141,0.011-0.2c0-0.051-0.003-0.107-0.011-0.166V5.621c0.008-0.029,0.011-0.066,0.011-0.111
				C136.449,5.991,137.803,6.523,138.35,7.108z"/>
			
				<linearGradient id="SVGID_32_" gradientUnits="userSpaceOnUse" x1="-146.6987" y1="-188.751" x2="149.751" y2="-188.751" gradientTransform="matrix(0.2219 0 0 0.2219 101.0496 49.9001)">
				<stop  offset="0.051" style="stop-color:#514D4D"/>
				<stop  offset="0.1333" style="stop-color:#747372"/>
				<stop  offset="0.2471" style="stop-color:#484443"/>
				<stop  offset="0.502" style="stop-color:#AAA9A9"/>
				<stop  offset="0.7216" style="stop-color:#413E3B"/>
				<stop  offset="0.9137" style="stop-color:#666360"/>
			</linearGradient>
			<path fill-rule="evenodd" clip-rule="evenodd" fill="url(#SVGID_32_)" d="M134.278,5.621v0.688v0.366
				c0,0.007-0.008,0.026-0.022,0.055c-0.185,0.422-0.851,0.821-1.997,1.198c-1.598,0.518-4.131,0.987-7.6,1.409
				c-6.42,0.799-14.172,1.198-23.254,1.198c-9.105,0-16.868-0.399-23.288-1.198c-3.469-0.422-6.002-0.899-7.6-1.431
				c-1.131-0.363-1.79-0.754-1.975-1.176c-0.03-0.081-0.044-0.159-0.044-0.233V5.499c0.015,0.148,0.092,0.3,0.233,0.455
				c0.2,0.214,0.521,0.418,0.965,0.61c0.813,0.348,2.038,0.684,3.672,1.01c1.316,0.251,2.899,0.488,4.749,0.71
				c6.42,0.799,14.183,1.198,23.288,1.198c9.082,0,16.834-0.399,23.254-1.198c1.85-0.222,3.439-0.458,4.771-0.71
				c1.62-0.326,2.844-0.662,3.673-1.01c0.429-0.192,0.743-0.396,0.942-0.61C134.156,5.843,134.234,5.732,134.278,5.621z"/>
			
				<linearGradient id="SVGID_33_" gradientUnits="userSpaceOnUse" x1="-193.3984" y1="-172.5015" x2="196.4502" y2="-172.5015" gradientTransform="matrix(0.2219 0 0 0.2219 101.0496 49.9001)">
				<stop  offset="0.051" style="stop-color:#7B7B7B"/>
				<stop  offset="0.1333" style="stop-color:#A19F9E"/>
				<stop  offset="0.2471" style="stop-color:#6A605E"/>
				<stop  offset="0.502" style="stop-color:#D7D4D3"/>
				<stop  offset="0.7216" style="stop-color:#5C5753"/>
				<stop  offset="0.9137" style="stop-color:#A09993"/>
			</linearGradient>
			<path fill-rule="evenodd" clip-rule="evenodd" fill="url(#SVGID_33_)" d="M64.537,7.03c-0.155,0.14-0.259,0.285-0.311,0.433
				c-0.015,0.074-0.022,0.137-0.022,0.188c0,0.377,0.333,0.744,0.999,1.098c1.531,0.799,4.826,1.513,9.885,2.142
				c7.249,0.895,16.013,1.342,26.294,1.342c10.273,0,19.042-0.447,26.306-1.342c5.059-0.629,8.354-1.335,9.885-2.119
				c0.666-0.37,0.999-0.743,0.999-1.121c0-0.052-0.008-0.107-0.022-0.167c-0.022-0.14-0.089-0.266-0.2-0.377l6.291,4.116
				c-1.146,1.272-5.296,2.378-12.448,3.317c-8.506,1.117-18.775,1.675-30.81,1.675c-12.042,0-22.315-0.558-30.821-1.675
				c-7.167-0.939-11.309-2.045-12.426-3.317L64.537,7.03z"/>
			
				<linearGradient id="SVGID_34_" gradientUnits="userSpaceOnUse" x1="-193.3984" y1="-159.7266" x2="196.4502" y2="-159.7266" gradientTransform="matrix(0.2219 0 0 0.2219 101.0496 49.9001)">
				<stop  offset="0.051" style="stop-color:#514D4D"/>
				<stop  offset="0.1333" style="stop-color:#747372"/>
				<stop  offset="0.2471" style="stop-color:#484443"/>
				<stop  offset="0.502" style="stop-color:#AAA9A9"/>
				<stop  offset="0.7216" style="stop-color:#413E3B"/>
				<stop  offset="0.9137" style="stop-color:#666360"/>
			</linearGradient>
			<path fill-rule="evenodd" clip-rule="evenodd" fill="url(#SVGID_34_)" d="M58.136,11.224c1.117,1.272,5.259,2.378,12.426,3.317
				c8.506,1.117,18.78,1.675,30.821,1.675c12.034,0,22.304-0.558,30.81-1.675c7.152-0.939,11.302-2.045,12.448-3.317v1.464
				c-1.132,1.28-5.281,2.385-12.448,3.317c-8.506,1.124-18.775,1.686-30.81,1.686c-12.042,0-22.315-0.562-30.821-1.686
				c-7.167-0.932-11.309-2.038-12.426-3.317V11.224z"/>
		</g>
	</g>
	
		<radialGradient id="SVGID_35_" cx="199.5" cy="330.4502" r="24.9" gradientTransform="matrix(-5.798945e-004 -0.1373 3.2038 -0.0135 -957.2492 121.3002)" gradientUnits="userSpaceOnUse">
		<stop  offset="0" style="stop-color:#FFFFFF"/>
		<stop  offset="0.1216" style="stop-color:#FFFFFF"/>
		<stop  offset="0.2824" style="stop-color:#FFFFFF;stop-opacity:0.4471"/>
		<stop  offset="0.502" style="stop-color:#FFFFFF;stop-opacity:0.1882"/>
		<stop  offset="0.6824" style="stop-color:#FFFFFF;stop-opacity:0.0863"/>
		<stop  offset="0.9294" style="stop-color:#FFFFFF;stop-opacity:0"/>
	</radialGradient>
	<path fill-rule="evenodd" clip-rule="evenodd" fill="url(#SVGID_35_)" d="M101.31,86.028c21.892-0.093,40.581,0.162,56.071,0.766
		c15.593,0.598,23.393,1.365,23.396,2.304c0.004,0.938-7.789,1.773-23.377,2.508c-15.484,0.729-34.17,1.14-56.062,1.232
		c-21.895,0.092-40.637-0.16-56.23-0.758c-15.49-0.603-23.234-1.373-23.238-2.312s7.733-1.771,23.217-2.501
		C60.676,86.534,79.416,86.121,101.31,86.028z"/>
	
		<radialGradient id="SVGID_36_" cx="199.5459" cy="330.4512" r="24.8765" gradientTransform="matrix(-1.965177e-004 -0.0461 3.2038 -0.0137 -957.3 36.35)" gradientUnits="userSpaceOnUse">
		<stop  offset="0" style="stop-color:#FFFFFF"/>
		<stop  offset="0.1216" style="stop-color:#FFFFFF"/>
		<stop  offset="0.2824" style="stop-color:#FFFFFF;stop-opacity:0.4471"/>
		<stop  offset="0.502" style="stop-color:#FFFFFF;stop-opacity:0.1882"/>
		<stop  offset="0.6824" style="stop-color:#FFFFFF;stop-opacity:0.0863"/>
		<stop  offset="0.9294" style="stop-color:#FFFFFF;stop-opacity:0"/>
	</radialGradient>
	<path fill-rule="evenodd" clip-rule="evenodd" fill="url(#SVGID_36_)" d="M101.346,21.497c21.892-0.094,40.58-0.061,56.068,0.097
		c15.591,0.156,23.389,0.392,23.39,0.707c0.002,0.315-7.794,0.618-23.383,0.909c-15.486,0.289-34.174,0.479-56.065,0.573
		c-21.894,0.093-40.636,0.062-56.227-0.095c-15.488-0.158-23.229-0.395-23.23-0.709c-0.001-0.315,7.738-0.617,23.224-0.905
		C60.711,21.782,79.452,21.59,101.346,21.497z"/>
	
		<radialGradient id="SVGID_37_" cx="199.5" cy="330.4512" r="24.8995" gradientTransform="matrix(2.593994e-004 -0.0546 0.7799 -0.0033 -156.1499 23.9503)" gradientUnits="userSpaceOnUse">
		<stop  offset="0" style="stop-color:#FFFFFF"/>
		<stop  offset="0.1216" style="stop-color:#FFFFFF"/>
		<stop  offset="0.2824" style="stop-color:#FFFFFF;stop-opacity:0.4471"/>
		<stop  offset="0.502" style="stop-color:#FFFFFF;stop-opacity:0.1882"/>
		<stop  offset="0.6824" style="stop-color:#FFFFFF;stop-opacity:0.0863"/>
		<stop  offset="0.9294" style="stop-color:#FFFFFF;stop-opacity:0"/>
	</radialGradient>
	<path fill-rule="evenodd" clip-rule="evenodd" fill="url(#SVGID_37_)" d="M101.629,10.619c5.329-0.022,9.878,0.091,13.646,0.341
		c3.794,0.248,5.69,0.558,5.688,0.931c-0.002,0.373-1.901,0.7-5.697,0.982c-3.771,0.28-8.321,0.431-13.65,0.453
		c-5.33,0.022-9.892-0.09-13.686-0.338c-3.769-0.25-5.652-0.561-5.65-0.934s1.888-0.699,5.659-0.979
		C91.736,10.794,96.299,10.642,101.629,10.619z"/>
	
		<radialGradient id="SVGID_38_" cx="199.5" cy="330.4512" r="24.8995" gradientTransform="matrix(1.525879e-004 -0.0309 0.5007 -0.0021 -62.9502 16.1005)" gradientUnits="userSpaceOnUse">
		<stop  offset="0" style="stop-color:#FFFFFF"/>
		<stop  offset="0.1216" style="stop-color:#FFFFFF"/>
		<stop  offset="0.2824" style="stop-color:#FFFFFF;stop-opacity:0.4471"/>
		<stop  offset="0.502" style="stop-color:#FFFFFF;stop-opacity:0.1882"/>
		<stop  offset="0.6824" style="stop-color:#FFFFFF;stop-opacity:0.0863"/>
		<stop  offset="0.9294" style="stop-color:#FFFFFF;stop-opacity:0"/>
	</radialGradient>
	<path fill-rule="evenodd" clip-rule="evenodd" fill="url(#SVGID_38_)" d="M102.541,8.463c3.421-0.014,6.342,0.048,8.762,0.189
		c2.436,0.139,3.653,0.314,3.652,0.525c-0.002,0.211-1.221,0.397-3.658,0.558c-2.421,0.16-5.342,0.247-8.764,0.261
		c-3.422,0.014-6.35-0.048-8.786-0.187c-2.42-0.14-3.628-0.316-3.627-0.527c0.001-0.211,1.211-0.396,3.633-0.556
		C96.19,8.566,99.119,8.478,102.541,8.463z"/>
</g>
</svg>
